<svg width="808" height="140" viewBox="0 0 808 140" fill="none" xmlns="http://www.w3.org/2000/svg">
<g clip-path="url(#clip0_1_394)">
<path fill-rule="evenodd" clip-rule="evenodd" d="M98.5183 47.8228L99.6082 46.618V44.0965L98.8147 43.2789C98.1346 42.5819 97.4458 41.8848 96.757 41.1963C95.2485 39.6645 93.6878 38.081 92.1793 36.5061C90.2175 34.4407 88.273 32.3667 86.3286 30.2927C85.3172 29.217 84.3145 28.1413 83.303 27.0655C83.085 26.8332 82.8496 26.6266 82.6665 26.4631L81.8033 25.6628C81.6987 26.2824 81.5504 26.8848 81.376 27.4872C81.594 27.7024 81.9951 28.1413 82.1433 28.3048C83.1461 29.3633 84.1401 30.4304 85.1341 31.4975C87.0959 33.5888 89.0578 35.68 91.0371 37.7454C92.5368 39.3289 94.0976 40.9037 95.606 42.4356C96.2948 43.1413 96.9924 43.8383 97.6812 44.544L97.9602 44.828V45.9209L97.2801 46.6697C97.0273 46.945 96.7657 47.229 96.5128 47.5044C90.5662 54.1567 88.3689 62.186 89.7815 72.0569C90.3046 75.6628 91.5254 79.2858 92.7112 82.7798L93.1384 84.0449C93.3303 84.6215 93.5308 85.198 93.7226 85.7832C95.2311 90.1636 96.7831 94.7075 96.9226 99.5268C97.1493 107.04 94.8736 113.89 90.1564 119.88C86.0409 125.121 81.2801 128.201 75.6038 129.312C73.5373 129.716 71.4273 130.009 69.3869 130.301C67.6779 130.534 65.9079 130.783 64.1902 131.093C58.0082 132.203 53.9275 134.286 50.9717 137.831L50.6665 138.184H49.3673L49.0709 137.788C46.6905 134.57 43.1766 132.608 37.6834 131.437C35.242 130.912 32.6959 130.542 30.2371 130.189C28.5978 129.948 26.8976 129.708 25.2322 129.415C19.4948 128.417 14.5858 125.362 10.6273 120.336C4.41037 112.453 2.23053 103.933 4.13135 95.0173C5.06432 90.6369 6.52045 86.334 7.95914 82.3409C11.2289 73.2531 11.8567 66.1017 9.99947 59.1653C8.5695 53.8211 6.20655 49.7075 2.76241 46.5922L2.44852 46.2996V44.7592L2.80601 44.4666C2.90192 44.3891 2.98912 44.3203 3.08503 44.2514C3.22454 44.1481 3.36405 44.0449 3.45124 43.9502C5.02944 42.2635 6.60765 40.5681 8.17713 38.8814C9.84252 37.0913 11.5079 35.3099 13.182 33.5199C14.4812 32.1344 15.7891 30.7488 17.097 29.3719L18.9804 27.3753C19.024 27.513 19.0676 27.6593 19.1199 27.8056C18.8409 26.9106 18.6229 25.9898 18.4921 25.0518L15.5624 28.1413C14.2545 29.5182 12.9466 30.9037 11.6474 32.2979C9.93843 34.1223 8.22072 35.9554 6.52045 37.7884C4.99457 39.4235 3.46868 41.0586 1.94279 42.6938C1.89048 42.7368 1.83816 42.7712 1.78585 42.8142C1.68121 42.8917 1.56786 42.9777 1.46323 43.0638L0.425629 43.8986V47.0913L1.34116 47.9261C4.50628 50.8005 6.70356 54.6301 8.03762 59.6301C9.79893 66.1963 9.18857 73.0122 6.04089 81.7385C4.58476 85.7918 3.10247 90.1636 2.14334 94.6473C0.129171 104.105 2.43108 113.124 8.98803 121.454C13.2343 126.842 18.527 130.121 24.7264 131.196C26.418 131.489 28.127 131.738 29.7749 131.979C32.321 132.349 34.7188 132.694 37.1079 133.21C42.139 134.286 45.3041 136.024 47.4055 138.856L48.2512 140H51.3553L52.2011 138.985C54.8692 135.783 58.6098 133.899 64.3297 132.874C66.0126 132.573 67.7651 132.332 69.4567 132.091C71.5232 131.807 73.6594 131.506 75.7782 131.093C81.8207 129.914 87.0872 126.515 91.4207 120.998C96.4082 114.664 98.8147 107.418 98.5706 99.4665C98.4224 94.3891 96.8267 89.7161 95.2834 85.198C95.0828 84.6215 94.2632 82.2032 94.2632 82.2032C93.1123 78.7781 91.909 75.2411 91.4207 71.7987C90.0867 62.4872 92.1357 54.9399 97.7074 48.7092C97.9777 48.408 98.248 48.1154 98.5183 47.8228Z" fill="white"/>
<path fill-rule="evenodd" clip-rule="evenodd" d="M95.7553 45.4039C95.2321 44.8703 94.709 44.3367 94.1858 43.8032C92.6686 42.2713 91.0992 40.6792 89.582 39.0872C87.6027 37.0132 85.6409 34.9219 83.679 32.8307C82.7199 31.798 81.5776 30.6792 80.6098 29.6551C80.6098 29.6551 80.6098 29.6551 80.6098 29.6465C76.5379 39.199 64.4703 46.1181 50.2054 46.1181C35.7749 46.1181 23.5852 39.0441 19.6528 29.3281C19.7051 29.5002 19.7139 29.5949 19.6528 29.5433L18.5455 30.7137C17.2463 32.0906 15.9384 33.4675 14.6392 34.8531C12.9738 36.6345 11.3084 38.4245 9.64301 40.2059C8.06481 41.9013 6.4866 43.5966 4.9084 45.2834C4.80377 45.3953 4.69042 45.4985 4.58578 45.5846C8.05609 48.9064 10.4539 53.1922 11.9275 58.6655C13.8893 66.0063 13.2441 73.5106 9.83483 82.9942C8.4223 86.9271 6.98361 91.1526 6.07679 95.4211C4.29805 103.743 6.35581 111.721 12.1978 119.13C15.8948 123.82 20.2719 126.557 25.582 127.478C27.2125 127.77 28.8953 128.011 30.5258 128.244C33.0196 128.605 35.5918 128.984 38.1117 129.517C41.922 130.335 46.6566 131.789 50.0746 135.86C54.2774 131.333 59.8926 129.87 63.8338 129.156C65.5951 128.846 67.3825 128.597 69.109 128.356C71.1231 128.072 73.1983 127.779 75.2125 127.392C80.4005 126.376 84.7776 123.528 88.588 118.683C93.0087 113.054 95.1449 106.635 94.9357 99.5777C94.7962 95.0596 93.2964 90.662 91.8403 86.4021C91.6485 85.8256 91.4479 85.249 91.2474 84.6638L90.8202 83.3987C89.6169 79.8187 88.3613 76.1095 87.8207 72.3316C86.3384 62.0046 88.7624 53.218 95.0229 46.2128C95.267 45.9374 95.5112 45.6706 95.7553 45.4039ZM77 113.605H57.5471L56.588 110.937L58.419 110.464C60.4245 109.896 61.776 109.139 62.4648 108.192C63.1537 107.254 63.5024 105.585 63.5024 103.175V87.4262H37.5362V103.726C37.5362 105.972 37.8588 107.538 38.4866 108.433C39.1231 109.32 40.4223 110.051 42.3842 110.619L44.0496 111.092L43.1776 113.605H23.7248L22.7743 110.937L24.5967 110.464C26.6109 109.896 27.9536 109.139 28.6425 108.192C29.3313 107.254 29.6801 105.585 29.6801 103.175V67.7619C29.6801 65.3608 29.3313 63.6827 28.6425 62.7447C27.9536 61.8066 26.6109 61.0493 24.5967 60.4727L22.7743 59.9994L23.7248 57.3402H41.1111L42.14 58.5966L41.1111 59.9994C39.7858 61.7292 38.8615 63.5536 38.3297 65.4899C37.7978 67.4262 37.5362 69.9564 37.5362 73.0889V82.65H63.5024V67.7619C63.5024 65.3608 63.1537 63.6827 62.4648 62.7447C61.776 61.8066 60.4245 61.0493 58.419 60.4727L56.588 59.9994L57.5471 57.3402H74.9335L75.9624 58.5966L74.9335 59.9994C73.6082 61.7292 72.6839 63.5536 72.152 65.4899C71.6201 67.4262 71.3586 69.9564 71.3586 73.0889V103.726C71.3586 105.972 71.6725 107.538 72.309 108.433C72.9455 109.32 74.2447 110.051 76.1978 110.619L77.8719 111.092L77 113.605Z" fill="white"/>
<path d="M63.5801 9.45801H54.7997V11.0243H64.3125V31.0415H35.7217V11.0243H40.8836V9.45801H36.4542C34.9893 9.45801 33.7948 10.6284 33.7948 12.0828V30.4907C33.7948 31.9795 35.0504 33.4855 36.5414 33.7781L46.5425 35.7575L44.0487 36.6353C43.2989 36.8935 42.5577 37.1947 41.9735 37.4614H58.0607C57.4678 37.1947 56.7267 36.8935 55.9942 36.6353L53.4918 35.7575L63.5103 33.7781C64.9926 33.4855 66.2395 31.9795 66.2395 30.4907V12.0828C66.2395 10.6284 65.0449 9.45801 63.5801 9.45801Z" fill="white"/>
<path fill-rule="evenodd" clip-rule="evenodd" d="M56.3334 21.79C56.2898 22.2633 56.1067 22.6678 55.9149 23.0723C55.6882 23.5456 55.4528 24.0103 55.2697 24.4923C55.1389 24.8365 55.0517 25.2065 54.9819 25.568C54.9035 26.0069 54.8424 26.4458 54.8075 26.8847C54.7814 27.1515 54.8163 27.4182 54.8337 27.685C54.8424 27.9776 54.7204 28.1325 54.4675 28.2788C54.3193 28.3649 54.1798 28.5198 54.1187 28.6833C54.0228 28.8985 53.9966 29.148 53.953 29.389C53.9182 29.6127 53.8833 29.6558 53.6479 29.6558C53.2555 29.6558 52.8544 29.6558 52.462 29.6558C52.2092 29.6558 52.1569 29.5783 52.2702 29.3546C52.5056 28.8985 52.837 28.5026 53.2729 28.2186C53.5345 28.0465 53.6653 27.7883 53.7612 27.5301C53.9095 27.0826 54.049 26.6351 54.1187 26.1704C54.2408 25.3701 54.3977 24.5525 54.2582 23.7435C54.1885 23.3477 53.9966 22.969 53.8223 22.599C53.552 22.0396 53.1334 21.5749 52.7323 21.1102C52.4708 20.809 52.3313 20.4561 52.2528 20.0861C52.2353 19.9828 52.1917 19.9484 52.0958 19.9828C51.843 20.0516 51.5901 20.1291 51.3372 20.1893C51.0844 20.2496 50.8315 20.3184 50.5787 20.3356C50.0729 20.3614 49.5672 20.3614 49.0528 20.3614C48.9307 20.3614 48.8697 20.3701 48.8784 20.5077C48.9133 20.9897 48.7127 21.4114 48.5471 21.8503C48.4511 22.0912 48.4686 22.3666 48.4686 22.6248C48.4599 23.0809 48.5645 23.5112 48.6778 23.9587C48.7214 24.1394 48.643 24.3546 48.5994 24.5525C48.5383 24.8021 48.4075 25.043 48.3901 25.2926C48.3727 25.7487 48.3988 26.1962 48.4424 26.6437C48.4773 27.0138 48.6168 27.3666 48.6517 27.7281C48.6691 27.8916 48.5819 28.0895 48.4947 28.2444C48.3378 28.5198 48.2593 28.8038 48.2506 29.1136C48.2419 29.716 48.2855 29.6386 47.7013 29.6472C47.431 29.6558 47.1607 29.6472 46.8904 29.6386C46.7073 29.6386 46.6724 29.5869 46.7334 29.4234C46.8729 28.9931 47.0735 28.5886 47.431 28.296C47.7274 28.0465 47.7449 27.7108 47.7362 27.3924C47.7274 26.8589 47.6402 26.3253 47.5705 25.8003C47.5269 25.4561 47.4659 25.1119 47.4048 24.7676C47.3612 24.5697 47.3351 24.3718 47.2479 24.1997C47.1084 23.9329 47.1432 23.6661 47.1694 23.3993C47.2043 23.0293 47.1868 22.6764 47.056 22.3322C46.9689 22.074 46.8817 21.8244 46.777 21.5663C46.5852 21.0671 46.2539 20.6454 45.9487 20.2065C45.7481 19.9225 45.5476 19.8107 45.1988 19.9225C45.0419 19.9656 44.8675 19.9398 44.7018 19.9225C44.2746 19.8623 43.856 19.8193 43.4462 19.7074C43.019 19.5955 42.6092 19.432 42.2081 19.2599C41.8593 19.105 41.5018 19.0189 41.1443 19.1136C40.813 19.191 40.5427 19.4062 40.3596 19.6816C40.1154 20.0516 39.9062 20.4475 39.7056 20.852C39.5661 21.1274 39.4441 21.42 39.3743 21.7126C39.3045 22.0052 39.3133 22.3064 39.3045 22.6076C39.3045 22.8571 39.2522 23.0551 38.9732 23.1411C38.9209 23.1583 38.8773 23.2358 38.8511 23.296C38.8337 23.3391 38.8424 23.3993 38.8511 23.4509C38.9471 24.0189 38.9471 23.8726 38.5111 24.1997C38.2233 24.4234 37.9182 24.6299 37.613 24.8365C37.5607 24.8709 37.4735 24.8967 37.4212 24.8709C37.3776 24.8451 37.3514 24.7504 37.3514 24.6988C37.395 24.3029 37.3863 23.8985 37.4996 23.5284C37.613 23.167 37.8571 22.8485 38.0315 22.5043C38.1885 22.2117 38.3454 21.9105 38.4849 21.6093C38.6506 21.2823 38.7988 20.9466 38.9383 20.611C39.0604 20.3442 39.1563 20.0688 39.2609 19.8021C39.5051 19.1308 39.7231 18.4509 40.2898 17.969C40.6212 17.685 41.0048 17.5559 41.4408 17.5473C41.7983 17.5387 42.1645 17.5645 42.522 17.5129C42.9318 17.4441 43.3329 17.315 43.6904 17.0998C43.795 17.0396 43.8822 16.9621 43.8299 16.8158C43.6293 16.3683 43.577 15.895 43.5683 15.4045C43.5596 14.9398 43.5857 14.4836 43.7427 14.0448C43.9694 13.3821 44.3182 12.7711 44.7977 12.2375C45.1988 11.7728 45.5302 11.2651 45.7656 10.6971C45.8964 10.4045 46.0533 10.1205 46.2015 9.83649C46.2626 9.73322 46.2103 9.69019 46.1231 9.68158C45.7743 9.65577 45.4866 9.49225 45.1901 9.35456C45.0419 9.29432 44.8413 9.29432 44.6757 9.31153C44.3966 9.32014 44.1787 9.2685 44.0827 8.9673C44.074 8.94148 44.0479 8.92427 44.0391 8.90706C43.6991 8.57143 43.7776 8.14114 44.231 7.96041C44.4838 7.86575 44.7629 7.81411 45.0332 7.71945C45.4255 7.57315 45.783 7.36661 46.0882 7.0654C46.219 6.93632 46.3672 6.80723 46.5067 6.68675C46.5242 6.66093 46.5416 6.63511 46.5765 6.58348C46.498 6.55766 46.4283 6.52324 46.3672 6.52324C46.0533 6.54905 45.7656 6.45439 45.5127 6.28227C45.2337 6.10155 44.9634 5.92083 44.6931 5.7315C44.6495 5.70568 44.5972 5.66265 44.571 5.61102C44.5449 5.55938 44.51 5.47332 44.5362 5.42169C44.5536 5.37866 44.6495 5.34423 44.7105 5.34423C44.789 5.34423 44.8588 5.37866 44.9285 5.40448C45.1901 5.50775 45.443 5.61102 45.6958 5.71429C45.7394 5.7315 45.8092 5.69707 45.8528 5.68847C45.8441 5.64544 45.8528 5.5852 45.8266 5.55077C45.3558 4.84509 44.8326 4.18244 44.0827 3.74355C43.8822 3.62306 43.7165 3.45095 43.5683 3.28744C43.4898 3.19277 43.4724 3.04647 43.4462 2.91738C43.4288 2.86575 43.4724 2.76248 43.5073 2.75387C43.5596 2.74527 43.6381 2.77969 43.6904 2.81411C43.9258 3.00344 44.1525 3.20138 44.3879 3.3821C44.4664 3.45095 44.571 3.50258 44.6669 3.55422C44.789 3.61446 44.8849 3.58003 44.8762 3.44234C44.8762 3.20138 44.8675 2.95181 44.8239 2.71945C44.7629 2.27194 44.6495 1.83305 44.6059 1.38554C44.571 1.0241 44.6059 0.662651 44.6146 0.292599C44.6146 0.258176 44.6146 0.215146 44.6408 0.189329C44.7018 0.120482 44.7716 0.060241 44.8413 0C44.8675 0.0774527 44.9198 0.154905 44.9285 0.232358C44.9547 0.499139 44.9634 0.765921 44.9808 1.0241C44.9896 1.06713 45.0157 1.10155 45.0768 1.15318C45.1291 0.998279 45.1814 0.843373 45.2337 0.688468C45.2773 0.55938 45.3035 0.413081 45.3732 0.292599C45.3994 0.240964 45.5127 0.215146 45.5825 0.180723C45.6086 0.24957 45.6609 0.327022 45.6435 0.378657C45.565 0.671256 45.4604 0.963855 45.3819 1.25645C45.3296 1.46299 45.2947 1.67814 45.2686 1.89329C45.2599 1.94492 45.3122 1.99656 45.3383 2.04819C45.3819 2.02238 45.443 2.00516 45.4866 1.97935C45.7045 1.82444 45.9312 1.65232 46.1667 1.51463C46.219 1.48021 46.3236 1.51463 46.4021 1.52324C46.3759 1.60069 46.3672 1.70396 46.3149 1.75559C46.1492 1.92771 45.9312 2.0654 45.7917 2.26334C45.6784 2.41824 45.5999 2.63339 45.565 2.83133C45.4866 3.27022 45.5563 3.70052 45.6697 4.13941C45.7743 4.57831 45.94 5 46.2015 5.37005C46.4544 5.7315 46.8032 5.96386 47.2217 6.09294C47.5269 6.18761 47.8321 6.28227 48.1547 6.3253C48.4686 6.37694 48.5558 6.23924 48.4511 5.94664C48.3901 5.74871 48.2942 5.56799 48.2332 5.37866C48.1983 5.26678 48.1721 5.15491 48.1896 5.04303C48.1983 4.96558 48.2768 4.8537 48.3465 4.83649C48.4163 4.82788 48.5383 4.88812 48.5732 4.95697C48.6517 5.08606 48.6778 5.25818 48.7563 5.39587C48.8609 5.5852 48.9569 5.78313 49.1051 5.92943C49.3492 6.179 49.6544 6.13597 49.9596 6.04131C50.0206 6.01549 50.0817 5.98107 50.1514 5.94664C50.5263 5.75732 50.6484 5.49914 50.5176 5.09466C50.4043 4.74182 50.2473 4.39759 50.134 4.04475C50.0468 3.75215 49.916 3.45095 50.0817 3.15835C50.1165 3.0895 50.2124 3.05508 50.2735 3.01205C50.3171 3.06368 50.3694 3.12392 50.3868 3.18417C50.4915 3.61446 50.6135 4.04475 50.8926 4.4062C51.0931 4.65577 51.3896 4.69019 51.6511 4.50086C52.1045 4.16523 52.4795 3.75215 52.5318 3.16695C52.5667 2.83993 52.5144 2.4957 52.4446 2.17728C52.3923 1.93632 52.2528 1.72117 52.1656 1.48881C52.1394 1.41136 52.1656 1.30809 52.1656 1.22203C52.2615 1.23924 52.3923 1.23064 52.4446 1.28227C52.5841 1.45439 52.7062 1.65232 52.8195 1.84165C52.9067 1.97935 52.9765 2.12565 53.0637 2.25473C53.1421 2.36661 53.2293 2.33219 53.2555 2.22031C53.3078 2.01377 53.3427 1.79862 53.3863 1.58348C53.4386 1.25645 53.4996 0.938038 53.552 0.611015C53.5694 0.490534 53.5607 0.370052 53.5781 0.240964C53.5956 0.197935 53.6304 0.154905 53.6566 0.111876C53.7089 0.137694 53.8135 0.163511 53.8223 0.20654C53.8571 0.413081 53.892 0.628227 53.8833 0.834768C53.8746 1.06713 53.8223 1.29948 53.8135 1.53184C54.0664 1.40275 54.1885 1.19621 54.2844 0.963855C54.3367 0.817556 54.3454 0.671256 54.4152 0.542169C54.4501 0.473322 54.5547 0.438898 54.6244 0.387263C54.6593 0.45611 54.7378 0.533563 54.7204 0.585198C54.6506 0.869191 54.5808 1.15318 54.4588 1.41136C54.3018 1.78141 54.1187 2.15146 53.9007 2.4957C53.6566 2.90878 53.3689 3.29604 53.0811 3.69191C52.7411 4.18244 52.4097 4.67298 52.0348 5.13769C51.4506 5.86059 50.7007 6.36833 49.8201 6.68675C49.7067 6.72978 49.5934 6.77281 49.48 6.82444C49.48 6.82444 49.48 6.83305 49.4626 6.88468C49.7154 6.90189 49.9683 6.95353 50.2037 6.92771C50.474 6.90189 50.7356 6.80723 51.0059 6.74699C51.0582 6.72978 51.1193 6.73838 51.1629 6.7642C51.189 6.78141 51.1977 6.85886 51.189 6.89329C50.9885 7.39243 50.7182 7.80551 50.1427 7.9432C49.8986 8.00344 49.6718 8.02065 49.4451 7.9346C49.3056 7.88296 49.2533 7.9346 49.262 8.08089C49.262 8.36489 49.2795 8.66609 49.2533 8.95869C49.1923 9.5525 49.0964 10.1549 49.0353 10.7487C48.9743 11.4458 48.6953 12.117 48.7563 12.8227C48.8086 13.4079 49.0179 13.9243 49.5672 14.2083C49.8375 14.346 50.1427 14.4492 50.4392 14.475C50.8402 14.5181 51.2588 14.5181 51.6599 14.475C52.122 14.432 52.5754 14.3287 53.0288 14.2427C53.456 14.1738 53.892 14.062 54.3193 14.0361C55.043 13.9931 55.7754 13.9587 56.4904 14.0189C57.371 14.105 58.2081 14.3632 58.8533 15.0086C59.2195 15.3787 59.4811 15.809 59.5857 16.3167C59.6119 16.4544 59.6729 16.5835 59.6904 16.7212C59.6991 16.7986 59.6729 16.9449 59.6293 16.9535C59.5422 16.9793 59.4288 16.9449 59.3329 16.9191C59.2631 16.9019 59.2021 16.8417 59.0713 16.7642C59.0713 16.9621 59.0713 17.0998 59.0713 17.2375C59.08 17.7969 58.958 18.3305 58.8359 18.8726C58.7661 19.1652 58.7923 19.4836 58.8097 19.7849C58.8446 20.5852 59.1411 21.2651 59.8386 21.7298C60.1961 21.9707 60.5972 22.1084 61.0332 22.1687C61.2599 22.1945 61.4604 22.401 61.4778 22.6506C61.5214 23.2702 61.5476 23.8898 61.6174 24.5095C61.6522 24.8365 61.7394 25.1463 61.8353 25.4561C61.9487 25.809 62.1056 26.1446 62.2451 26.4888C62.2887 26.5921 62.3411 26.6954 62.4021 26.79C62.6637 27.2289 62.5678 27.4957 62.2016 27.7108C61.9313 27.8657 61.8877 28.1067 61.8702 28.3477C61.8441 28.7005 61.8528 29.062 61.8615 29.4234C61.8615 29.5869 61.8005 29.6558 61.6261 29.6558C61.2075 29.6472 60.7977 29.6558 60.3792 29.6558C60.1263 29.6558 60.0566 29.5611 60.1874 29.346C60.3792 29.0189 60.5623 28.6833 60.8065 28.4079C61.225 27.9604 61.3209 27.4527 61.3035 26.8761C61.2947 26.3941 61.2075 25.9208 61.0506 25.4647C60.9024 25.0516 60.7977 24.6299 60.6146 24.2341C60.3705 23.6833 59.9607 23.253 59.4026 22.9776C58.9928 22.7883 58.5743 22.6592 58.1209 22.599C57.5193 22.5043 56.9351 22.3322 56.4817 21.8675C56.4642 21.8503 56.4381 21.833 56.4119 21.8158C56.3945 21.8072 56.3683 21.8072 56.3334 21.79Z" fill="white"/>
</g>
<path d="M147.67 65H149.796L145.913 55.2041H143.89L140 65H142.126L142.728 63.3662H147.055L147.67 65ZM144.901 57.5898L146.351 61.5137H143.432L144.901 57.5898ZM152.77 59.1211V57.0225H154.499C154.909 57.0225 155.087 57.0498 155.251 57.125C155.647 57.2959 155.955 57.6104 155.955 58.0752C155.955 58.5537 155.647 58.8613 155.251 59.0254C155.073 59.0938 154.896 59.1211 154.506 59.1211H152.77ZM152.77 63.1406V60.8438H155.128C155.572 60.8438 155.777 60.8779 155.962 60.9531C156.399 61.124 156.721 61.4863 156.721 61.9854C156.721 62.5186 156.379 62.8604 155.962 63.0312C155.771 63.1064 155.565 63.1406 155.142 63.1406H152.77ZM150.726 65H155.545C156.352 65 156.885 64.8496 157.336 64.5898C158.177 64.0977 158.737 63.2021 158.737 62.0674C158.737 61.001 158.115 60.1807 157.268 59.709C157.671 59.251 157.903 58.7041 157.903 58.0957C157.903 56.9336 157.322 56.0518 156.454 55.5732C156.017 55.334 155.497 55.2041 154.718 55.2041H150.726V65ZM159.093 55.1973V57.0908H162.312V65H164.363V57.0908H167.59V55.1973H159.093ZM177.967 60.0986C177.967 57.3506 175.848 55.1973 172.97 55.1973C170.099 55.1973 167.979 57.3506 167.979 60.0986C167.979 62.8535 170.099 65 172.97 65C175.848 65 177.967 62.8535 177.967 60.0986ZM175.868 60.0986C175.868 61.7939 174.733 63.1133 172.97 63.1133C171.213 63.1133 170.078 61.7939 170.078 60.0986C170.078 58.4102 171.213 57.0771 172.97 57.0771C174.733 57.0771 175.868 58.4102 175.868 60.0986ZM185.78 55.1973V58.6836H181.385V55.1973H179.341V65H181.385V60.5771H185.78V65H187.831V55.1973H185.78ZM199.186 60.0986C199.186 57.3506 197.066 55.1973 194.188 55.1973C191.317 55.1973 189.198 57.3506 189.198 60.0986C189.198 62.8535 191.317 65 194.188 65C197.066 65 199.186 62.8535 199.186 60.0986ZM197.087 60.0986C197.087 61.7939 195.952 63.1133 194.188 63.1133C192.432 63.1133 191.297 61.7939 191.297 60.0986C191.297 58.4102 192.432 57.0771 194.188 57.0771C195.952 57.0771 197.087 58.4102 197.087 60.0986ZM200.56 55.1973V65H202.604V58.9775L205.864 62.8125L209.125 58.9775V65H211.169V55.1973H210.055L205.864 60.0576L201.674 55.1973H200.56ZM219.454 55.1973V58.6836H215.059V55.1973H213.015V65H215.059V60.5771H219.454V65H221.505V55.1973H219.454ZM230.098 65H232.224L228.341 55.2041H226.317L222.428 65H224.554L225.155 63.3662H229.482L230.098 65ZM227.329 57.5898L228.778 61.5137H225.859L227.329 57.5898ZM240.946 65V55.2041H236.154C235.32 55.2041 234.746 55.3613 234.274 55.6621C233.481 56.1475 232.969 57.0156 232.969 58.1367C232.969 58.7725 233.146 59.3467 233.468 59.8115C233.81 60.3105 234.268 60.625 234.787 60.8027L234.869 60.8369L232.388 65H234.739L237.057 61.042H238.902V65H240.946ZM236.421 59.1689C236.031 59.1689 235.847 59.1484 235.676 59.0732C235.293 58.916 234.985 58.6016 234.985 58.1367C234.985 57.6787 235.279 57.3506 235.676 57.1934C235.84 57.1182 236.024 57.0908 236.428 57.0908H238.902V59.1689H236.421ZM252.854 55.1973V58.6836H248.459V55.1973H246.415V65H248.459V60.5771H252.854V65H254.905V55.1973H252.854ZM256.751 55.1973V65H263.648V63.1133H258.802V60.5635H262.5V58.6973H258.802V57.084H263.648V55.1973H256.751ZM270.225 55.1973L267.237 58.9092V55.1973H265.187V65H267.237V60.1328L270.915 65H273.438L269.117 59.4697L272.686 55.1973H270.225ZM283.131 60.0986C283.131 57.3506 281.012 55.1973 278.134 55.1973C275.263 55.1973 273.144 57.3506 273.144 60.0986C273.144 62.8535 275.263 65 278.134 65C281.012 65 283.131 62.8535 283.131 60.0986ZM281.032 60.0986C281.032 61.7939 279.897 63.1133 278.134 63.1133C276.377 63.1133 275.242 61.7939 275.242 60.0986C275.242 58.4102 276.377 57.0771 278.134 57.0771C279.897 57.0771 281.032 58.4102 281.032 60.0986ZM284.505 55.1973V65H286.549V58.9775L289.81 62.8125L293.07 58.9775V65H295.114V55.1973H294L289.81 60.0576L285.619 55.1973H284.505ZM296.96 55.1973V65H299.004V58.9775L302.265 62.8125L305.525 58.9775V65H307.569V55.1973H306.455L302.265 60.0576L298.074 55.1973H296.96ZM309.415 55.1973V65H316.312V63.1133H311.466V60.5635H315.164V58.6973H311.466V57.084H316.312V55.1973H309.415ZM319.895 59.1758V57.0908H322.376C322.779 57.0908 322.964 57.125 323.128 57.1934C323.524 57.3506 323.818 57.6787 323.818 58.1367C323.818 58.6084 323.511 58.9229 323.128 59.0801C322.957 59.1484 322.772 59.1758 322.383 59.1758H319.895ZM319.895 65V61.0557H322.649C323.483 61.0557 324.051 60.8916 324.516 60.5977C325.322 60.0918 325.835 59.21 325.835 58.1367C325.835 57.0225 325.322 56.1543 324.529 55.6621C324.058 55.3613 323.483 55.2041 322.649 55.2041H317.851V65H319.895ZM332.637 55.1973V59.3193C332.062 59.5928 331.413 59.7295 330.695 59.7295C329.485 59.7295 328.802 59.2646 328.802 58.0479V55.1973H326.758V57.7471C326.758 58.6699 326.799 59.4492 327.298 60.2148C327.927 61.1855 329.055 61.6162 330.422 61.6162C331.208 61.6162 331.946 61.5 332.637 61.2676V65H334.688V55.1973H332.637ZM336.54 55.1973V65H343.438V63.1133H338.591V60.5635H342.289V58.6973H338.591V57.084H343.438V55.1973H336.54ZM353.794 58.5605C353.138 56.3799 351.224 55.1904 349.057 55.1904C346.227 55.1904 344.06 57.3506 344.06 60.0986C344.06 62.9014 346.329 65 349.057 65C351.299 65 353.227 63.6191 353.814 61.5615L351.866 60.96C351.442 62.3408 350.431 63.127 349.057 63.127C347.313 63.127 346.165 61.7324 346.165 60.0986C346.165 58.3828 347.341 57.0566 349.057 57.0566C350.438 57.0566 351.449 57.8564 351.859 59.1895L353.794 58.5605ZM360.104 55.1973L357.116 58.9092V55.1973H355.065V65H357.116V60.1328L360.794 65H363.316L358.996 59.4697L362.564 55.1973H360.104ZM370.986 65H373.112L369.229 55.2041H367.206L363.316 65H365.442L366.044 63.3662H370.371L370.986 65ZM368.218 57.5898L369.667 61.5137H366.748L368.218 57.5898ZM381.835 65V55.2041H377.043C376.209 55.2041 375.635 55.3613 375.163 55.6621C374.37 56.1475 373.857 57.0156 373.857 58.1367C373.857 58.7725 374.035 59.3467 374.356 59.8115C374.698 60.3105 375.156 60.625 375.676 60.8027L375.758 60.8369L373.276 65H375.628L377.945 61.042H379.791V65H381.835ZM377.31 59.1689C376.92 59.1689 376.735 59.1484 376.564 59.0732C376.182 58.916 375.874 58.6016 375.874 58.1367C375.874 57.6787 376.168 57.3506 376.564 57.1934C376.729 57.1182 376.913 57.0908 377.316 57.0908H379.791V59.1689H377.31ZM396.812 60.0986C396.812 57.3506 394.693 55.1973 391.815 55.1973C388.944 55.1973 386.825 57.3506 386.825 60.0986C386.825 62.8535 388.944 65 391.815 65C394.693 65 396.812 62.8535 396.812 60.0986ZM394.714 60.0986C394.714 61.7939 393.579 63.1133 391.815 63.1133C390.059 63.1133 388.924 61.7939 388.924 60.0986C388.924 58.4102 390.059 57.0771 391.815 57.0771C393.579 57.0771 394.714 58.4102 394.714 60.0986ZM400.23 59.1758V57.0908H402.712C403.115 57.0908 403.3 57.125 403.464 57.1934C403.86 57.3506 404.154 57.6787 404.154 58.1367C404.154 58.6084 403.847 58.9229 403.464 59.0801C403.293 59.1484 403.108 59.1758 402.719 59.1758H400.23ZM400.23 65V61.0557H402.985C403.819 61.0557 404.387 60.8916 404.852 60.5977C405.658 60.0918 406.171 59.21 406.171 58.1367C406.171 57.0225 405.658 56.1543 404.865 55.6621C404.394 55.3613 403.819 55.2041 402.985 55.2041H398.187V65H400.23ZM409.452 65V57.0908H414.299V55.1973H407.401V65H409.452ZM420.547 65H422.673L418.79 55.2041H416.767L412.877 65H415.003L415.604 63.3662H419.932L420.547 65ZM417.778 57.5898L419.228 61.5137H416.309L417.778 57.5898ZM430.042 55.1973V58.6836H425.646V55.1973H423.603V65H425.646V60.5771H430.042V65H432.093V55.1973H430.042ZM442.798 65V55.1973H441.677L435.982 61.3975V55.1973H433.938V65H435.066L440.754 58.793V65H442.798ZM443.892 63.2773C445.32 64.5215 446.804 65.0137 448.096 65.0068C450.249 64.9932 451.896 63.5303 451.896 61.9375C451.896 60.96 451.309 60.1533 450.358 59.6475C451.001 59.292 451.384 58.7656 451.384 58.041C451.384 56.5098 449.859 55.1973 447.788 55.1973C446.735 55.1973 445.539 55.5527 444.336 56.4072L445.437 57.8906C446.216 57.2891 446.975 57.0703 447.665 57.0703C448.622 57.0703 449.354 57.4668 449.354 58.0342C449.354 58.458 449.005 58.7246 448.506 58.8271C448.185 58.8955 447.809 58.916 447.446 58.916H446.024V60.7344H447.446C447.877 60.7344 448.301 60.7617 448.69 60.8438C449.36 60.9805 449.853 61.3496 449.853 61.9443C449.853 62.5869 449.012 63.1406 447.904 63.1064C447.043 63.0791 446.12 62.7373 445.115 61.8008L443.892 63.2773ZM459.867 65H461.993L458.11 55.2041H456.087L452.197 65H454.323L454.925 63.3662H459.252L459.867 65ZM457.099 57.5898L458.548 61.5137H455.629L457.099 57.5898ZM469.342 55.1973V63.0996H464.974V55.1973H462.923V65H470.784V67.0166H472.828V63.0996H471.393V55.1973H469.342ZM482.993 65V55.1973H481.872L476.178 61.3975V55.1973H474.134V65H475.262L480.949 58.793V65H482.993ZM492.632 65V55.2041H487.84C487.006 55.2041 486.432 55.3613 485.96 55.6621C485.167 56.1475 484.654 57.0156 484.654 58.1367C484.654 58.7725 484.832 59.3467 485.153 59.8115C485.495 60.3105 485.953 60.625 486.473 60.8027L486.555 60.8369L484.073 65H486.425L488.742 61.042H490.588V65H492.632ZM488.106 59.1689C487.717 59.1689 487.532 59.1484 487.361 59.0732C486.979 58.916 486.671 58.6016 486.671 58.1367C486.671 57.6787 486.965 57.3506 487.361 57.1934C487.525 57.1182 487.71 57.0908 488.113 57.0908H490.588V59.1689H488.106ZM498.101 55.1973V65H500.151V57.0908H504.547V65H506.598V55.1973H498.101ZM510.494 59.1758V57.0908H512.976C513.379 57.0908 513.563 57.125 513.728 57.1934C514.124 57.3506 514.418 57.6787 514.418 58.1367C514.418 58.6084 514.11 58.9229 513.728 59.0801C513.557 59.1484 513.372 59.1758 512.982 59.1758H510.494ZM510.494 65V61.0557H513.249C514.083 61.0557 514.65 60.8916 515.115 60.5977C515.922 60.0918 516.435 59.21 516.435 58.1367C516.435 57.0225 515.922 56.1543 515.129 55.6621C514.657 55.3613 514.083 55.2041 513.249 55.2041H508.45V65H510.494ZM527.174 60.0986C527.174 57.3506 525.055 55.1973 522.177 55.1973C519.306 55.1973 517.187 57.3506 517.187 60.0986C517.187 62.8535 519.306 65 522.177 65C525.055 65 527.174 62.8535 527.174 60.0986ZM525.075 60.0986C525.075 61.7939 523.94 63.1133 522.177 63.1133C520.42 63.1133 519.285 61.7939 519.285 60.0986C519.285 58.4102 520.42 57.0771 522.177 57.0771C523.94 57.0771 525.075 58.4102 525.075 60.0986ZM534.639 58.0684C536.095 58.1846 537.257 58.875 537.257 60.0918C537.257 61.3359 536.054 62.0127 534.639 62.1221V58.0684ZM532.608 62.1221C531.166 61.999 530.004 61.3154 530.004 60.0918C530.004 58.8613 531.214 58.1709 532.608 58.0684V62.1221ZM534.652 55.1836H532.608V56.1953C530.052 56.3867 527.953 57.7812 527.953 60.0918C527.953 62.3613 530.147 63.9268 532.608 63.9883V65H534.652V63.9951C537.216 63.8037 539.314 62.4092 539.314 60.0918C539.314 57.8018 537.216 56.3184 534.652 56.1953V55.1836ZM540.565 55.1973V65H547.463V63.1133H542.616V60.5635H546.314V58.6973H542.616V57.084H547.463V55.1973H540.565ZM557.819 58.5605C557.163 56.3799 555.249 55.1904 553.082 55.1904C550.252 55.1904 548.085 57.3506 548.085 60.0986C548.085 62.9014 550.354 65 553.082 65C555.324 65 557.252 63.6191 557.84 61.5615L555.892 60.96C555.468 62.3408 554.456 63.127 553.082 63.127C551.339 63.127 550.19 61.7324 550.19 60.0986C550.19 58.3828 551.366 57.0566 553.082 57.0566C554.463 57.0566 555.475 57.8564 555.885 59.1895L557.819 58.5605ZM568.347 58.5605C567.69 56.3799 565.776 55.1904 563.609 55.1904C560.779 55.1904 558.612 57.3506 558.612 60.0986C558.612 62.9014 560.882 65 563.609 65C565.852 65 567.779 63.6191 568.367 61.5615L566.419 60.96C565.995 62.3408 564.983 63.127 563.609 63.127C561.866 63.127 560.718 61.7324 560.718 60.0986C560.718 58.3828 561.894 57.0566 563.609 57.0566C564.99 57.0566 566.002 57.8564 566.412 59.1895L568.347 58.5605ZM578.478 65V55.1973H577.356L571.662 61.3975V55.1973H569.618V65H570.746L576.434 58.793V65H578.478ZM589.832 60.0986C589.832 57.3506 587.713 55.1973 584.835 55.1973C581.964 55.1973 579.845 57.3506 579.845 60.0986C579.845 62.8535 581.964 65 584.835 65C587.713 65 589.832 62.8535 589.832 60.0986ZM587.733 60.0986C587.733 61.7939 586.599 63.1133 584.835 63.1133C583.078 63.1133 581.943 61.7939 581.943 60.0986C581.943 58.4102 583.078 57.0771 584.835 57.0771C586.599 57.0771 587.733 58.4102 587.733 60.0986ZM597.646 55.1973V58.6836H593.25V55.1973H591.206V65H593.25V60.5771H597.646V65H599.696V55.1973H597.646ZM608.289 65H610.415L606.532 55.2041H604.509L600.619 65H602.745L603.347 63.3662H607.674L608.289 65ZM605.521 57.5898L606.97 61.5137H604.051L605.521 57.5898ZM613.416 55.1973V60.543C613.416 61.4658 613.354 62.0264 613.081 62.4365C612.869 62.7578 612.582 62.9492 612.186 62.9492C611.974 62.9492 611.782 62.9014 611.611 62.7988L610.627 64.5967C611.105 64.8633 611.632 65 612.186 65C613.286 65 614.188 64.4395 614.79 63.5371C615.289 62.7852 615.46 61.8965 615.46 60.7344V57.084H618.481V65H620.525V55.1973H613.416ZM628.318 61.9922C628.318 62.4844 628.018 62.8398 627.607 63.0107C627.443 63.0859 627.252 63.127 626.842 63.127H624.422V60.8711H626.849C627.245 60.8711 627.437 60.8984 627.607 60.9736C628.004 61.1445 628.318 61.4863 628.318 61.9922ZM630.335 61.9922C630.335 60.8916 629.815 59.9824 629.002 59.4697C628.53 59.1621 627.949 58.998 627.108 58.998H624.422V55.2041H622.378V65H627.108C627.949 65 628.537 64.8359 629.016 64.5352C629.815 64.0225 630.335 63.1338 630.335 61.9922ZM638.005 55.1973V58.6836H633.609V55.1973H631.565V65H633.609V60.5771H638.005V65H640.056V55.1973H638.005ZM651.41 60.0986C651.41 57.3506 649.291 55.1973 646.413 55.1973C643.542 55.1973 641.423 57.3506 641.423 60.0986C641.423 62.8535 643.542 65 646.413 65C649.291 65 651.41 62.8535 651.41 60.0986ZM649.312 60.0986C649.312 61.7939 648.177 63.1133 646.413 63.1133C644.656 63.1133 643.521 61.7939 643.521 60.0986C643.521 58.4102 644.656 57.0771 646.413 57.0771C648.177 57.0771 649.312 58.4102 649.312 60.0986ZM654.835 65V57.0908H659.682V55.1973H652.784V65H654.835ZM669.977 60.0986C669.977 57.3506 667.857 55.1973 664.979 55.1973C662.108 55.1973 659.989 57.3506 659.989 60.0986C659.989 62.8535 662.108 65 664.979 65C667.857 65 669.977 62.8535 669.977 60.0986ZM667.878 60.0986C667.878 61.7939 666.743 63.1133 664.979 63.1133C663.223 63.1133 662.088 61.7939 662.088 60.0986C662.088 58.4102 663.223 57.0771 664.979 57.0771C666.743 57.0771 667.878 58.4102 667.878 60.0986ZM684.482 60.0986C684.482 57.3506 682.363 55.1973 679.485 55.1973C676.614 55.1973 674.495 57.3506 674.495 60.0986C674.495 62.8535 676.614 65 679.485 65C682.363 65 684.482 62.8535 684.482 60.0986ZM682.384 60.0986C682.384 61.7939 681.249 63.1133 679.485 63.1133C677.729 63.1133 676.594 61.7939 676.594 60.0986C676.594 58.4102 677.729 57.0771 679.485 57.0771C681.249 57.0771 682.384 58.4102 682.384 60.0986ZM693.813 61.9922C693.813 60.8916 693.294 59.9824 692.48 59.4697C692.009 59.1621 691.428 58.998 690.587 58.998H687.9V57.084H692.897V55.1973H685.856V65H690.587C691.428 65 692.016 64.8359 692.494 64.5352C693.294 64.0225 693.813 63.1338 693.813 61.9922ZM691.797 61.9922C691.797 62.4844 691.496 62.8398 691.086 63.0107C690.922 63.0859 690.73 63.127 690.32 63.127H687.9V60.8711H690.327C690.724 60.8711 690.915 60.8984 691.086 60.9736C691.482 61.1445 691.797 61.4863 691.797 61.9922ZM697.266 59.1758V57.0908H699.747C700.15 57.0908 700.335 57.125 700.499 57.1934C700.896 57.3506 701.189 57.6787 701.189 58.1367C701.189 58.6084 700.882 58.9229 700.499 59.0801C700.328 59.1484 700.144 59.1758 699.754 59.1758H697.266ZM697.266 65V61.0557H700.021C700.854 61.0557 701.422 60.8916 701.887 60.5977C702.693 60.0918 703.206 59.21 703.206 58.1367C703.206 57.0225 702.693 56.1543 701.9 55.6621C701.429 55.3613 700.854 55.2041 700.021 55.2041H695.222V65H697.266ZM710.281 65H712.407L708.524 55.2041H706.501L702.611 65H704.737L705.339 63.3662H709.666L710.281 65ZM707.513 57.5898L708.962 61.5137H706.043L707.513 57.5898ZM712.585 63.2773C714.014 64.5215 715.497 65.0137 716.789 65.0068C718.942 64.9932 720.59 63.5303 720.59 61.9375C720.59 60.96 720.002 60.1533 719.052 59.6475C719.694 59.292 720.077 58.7656 720.077 58.041C720.077 56.5098 718.553 55.1973 716.481 55.1973C715.429 55.1973 714.232 55.5527 713.029 56.4072L714.13 57.8906C714.909 57.2891 715.668 57.0703 716.358 57.0703C717.315 57.0703 718.047 57.4668 718.047 58.0342C718.047 58.458 717.698 58.7246 717.199 58.8271C716.878 58.8955 716.502 58.916 716.14 58.916H714.718V60.7344H716.14C716.57 60.7344 716.994 60.7617 717.384 60.8438C718.054 60.9805 718.546 61.3496 718.546 61.9443C718.546 62.5869 717.705 63.1406 716.598 63.1064C715.736 63.0791 714.813 62.7373 713.809 61.8008L712.585 63.2773ZM731.473 60.0986C731.473 57.3506 729.354 55.1973 726.476 55.1973C723.604 55.1973 721.485 57.3506 721.485 60.0986C721.485 62.8535 723.604 65 726.476 65C729.354 65 731.473 62.8535 731.473 60.0986ZM729.374 60.0986C729.374 61.7939 728.239 63.1133 726.476 63.1133C724.719 63.1133 723.584 61.7939 723.584 60.0986C723.584 58.4102 724.719 57.0771 726.476 57.0771C728.239 57.0771 729.374 58.4102 729.374 60.0986ZM734.891 59.1211V57.0225H736.62C737.03 57.0225 737.208 57.0498 737.372 57.125C737.769 57.2959 738.076 57.6104 738.076 58.0752C738.076 58.5537 737.769 58.8613 737.372 59.0254C737.194 59.0938 737.017 59.1211 736.627 59.1211H734.891ZM734.891 63.1406V60.8438H737.249C737.693 60.8438 737.898 60.8779 738.083 60.9531C738.521 61.124 738.842 61.4863 738.842 61.9854C738.842 62.5186 738.5 62.8604 738.083 63.0312C737.892 63.1064 737.687 63.1406 737.263 63.1406H734.891ZM732.847 65H737.666C738.473 65 739.006 64.8496 739.457 64.5898C740.298 64.0977 740.858 63.2021 740.858 62.0674C740.858 61.001 740.236 60.1807 739.389 59.709C739.792 59.251 740.024 58.7041 740.024 58.0957C740.024 56.9336 739.443 56.0518 738.575 55.5732C738.138 55.334 737.618 55.2041 736.839 55.2041H732.847V65ZM748.891 65H751.017L747.134 55.2041H745.11L741.221 65H743.347L743.948 63.3662H748.275L748.891 65ZM746.122 57.5898L747.571 61.5137H744.652L746.122 57.5898ZM758.386 55.1973V58.6836H753.99V55.1973H751.946V65H753.99V60.5771H758.386V65H760.437V55.1973H758.386ZM771.142 65V55.1973H770.021L764.326 61.3975V55.1973H762.282V65H763.41L769.098 58.793V65H771.142ZM780.78 65V55.2041H775.988C775.154 55.2041 774.58 55.3613 774.108 55.6621C773.315 56.1475 772.803 57.0156 772.803 58.1367C772.803 58.7725 772.98 59.3467 773.302 59.8115C773.644 60.3105 774.102 60.625 774.621 60.8027L774.703 60.8369L772.222 65H774.573L776.891 61.042H778.736V65H780.78ZM776.255 59.1689C775.865 59.1689 775.681 59.1484 775.51 59.0732C775.127 58.916 774.819 58.6016 774.819 58.1367C774.819 57.6787 775.113 57.3506 775.51 57.1934C775.674 57.1182 775.858 57.0908 776.262 57.0908H778.736V59.1689H776.255ZM147.362 75.1973V78.6836H142.967V75.1973H140.923V85H142.967V80.5771H147.362V85H149.413V75.1973H147.362ZM160.118 85V75.1973H158.997L153.303 81.3975V75.1973H151.259V85H152.387L158.074 78.793V85H160.118ZM174.809 85L170.803 79.4697L174.125 75.1973H171.753L168.95 78.9229V75.1973H166.913V78.9229L164.097 75.1973H161.718L165.047 79.4697L161.041 85H163.475L166.913 80.126V85H168.95V80.126L172.368 85H174.809ZM175.731 75.1973V85H182.629V83.1133H177.782V80.5635H181.48V78.6973H177.782V77.084H182.629V75.1973H175.731ZM186.218 85V77.0908H191.064V75.1973H184.167V85H186.218ZM201.359 80.0986C201.359 77.3506 199.24 75.1973 196.362 75.1973C193.491 75.1973 191.372 77.3506 191.372 80.0986C191.372 82.8535 193.491 85 196.362 85C199.24 85 201.359 82.8535 201.359 80.0986ZM199.261 80.0986C199.261 81.7939 198.126 83.1133 196.362 83.1133C194.605 83.1133 193.471 81.7939 193.471 80.0986C193.471 78.4102 194.605 77.0771 196.362 77.0771C198.126 77.0771 199.261 78.4102 199.261 80.0986ZM204.777 79.1758V77.0908H207.259C207.662 77.0908 207.847 77.125 208.011 77.1934C208.407 77.3506 208.701 77.6787 208.701 78.1367C208.701 78.6084 208.394 78.9229 208.011 79.0801C207.84 79.1484 207.655 79.1758 207.266 79.1758H204.777ZM204.777 85V81.0557H207.532C208.366 81.0557 208.934 80.8916 209.398 80.5977C210.205 80.0918 210.718 79.21 210.718 78.1367C210.718 77.0225 210.205 76.1543 209.412 75.6621C208.94 75.3613 208.366 75.2041 207.532 75.2041H202.733V85H204.777ZM221.457 80.0986C221.457 77.3506 219.338 75.1973 216.46 75.1973C213.589 75.1973 211.47 77.3506 211.47 80.0986C211.47 82.8535 213.589 85 216.46 85C219.338 85 221.457 82.8535 221.457 80.0986ZM219.358 80.0986C219.358 81.7939 218.224 83.1133 216.46 83.1133C214.703 83.1133 213.568 81.7939 213.568 80.0986C213.568 78.4102 214.703 77.0771 216.46 77.0771C218.224 77.0771 219.358 78.4102 219.358 80.0986ZM229.031 77.0908V83.1064H225.128C225.559 82.04 225.818 81.0146 225.976 80.0166C226.133 79.0117 226.181 78.041 226.188 77.0908H229.031ZM231.082 75.1973H224.185C224.15 76.6875 224.157 78.2803 223.938 79.8047C223.774 80.9736 223.48 82.1016 222.94 83.1064H221.785V87.0166H223.836V85H230.378V87.0166H232.422V83.1064H231.082V75.1973ZM242.573 78.5605C241.917 76.3799 240.003 75.1904 237.836 75.1904C235.006 75.1904 232.839 77.3506 232.839 80.0986C232.839 82.9014 235.108 85 237.836 85C240.078 85 242.006 83.6191 242.594 81.5615L240.646 80.96C240.222 82.3408 239.21 83.127 237.836 83.127C236.093 83.127 234.944 81.7324 234.944 80.0986C234.944 78.3828 236.12 77.0566 237.836 77.0566C239.217 77.0566 240.229 77.8564 240.639 79.1895L242.573 78.5605ZM248.883 75.1973L245.896 78.9092V75.1973H243.845V85H245.896V80.1328L249.573 85H252.096L247.775 79.4697L251.344 75.1973H248.883ZM261.878 85V75.1973H260.757L255.062 81.3975V75.1973H253.019V85H254.146L259.834 78.793V85H261.878ZM270.56 73.5225L269.199 72.2441L267.019 74.5684L268.372 75.8467L270.56 73.5225ZM272.583 85V75.1973H271.462L265.768 81.3975V75.1973H263.724V85H264.852L270.539 78.793V85H272.583ZM280.103 85V77.0908H284.949V75.1973H278.052V85H280.103ZM285.455 75.1973L289.023 81.6982C289.023 81.6982 288.962 81.8008 288.948 81.8281C288.395 82.7236 288.08 82.9629 287.656 82.9629C287.396 82.9629 287.15 82.874 286.952 82.7236L285.906 84.4463C286.412 84.8154 287.007 85.0137 287.629 85.0137C288.531 85.0137 289.201 84.5898 289.755 84.0088C290.254 83.4824 290.616 82.8672 291.149 81.8691L294.711 75.1973H292.441L290.131 79.709L287.738 75.1973H285.455ZM295.634 75.1973V85H297.678V78.9775L300.938 82.8125L304.199 78.9775V85H306.243V75.1973H305.129L300.938 80.0576L296.748 75.1973H295.634ZM314.836 85H316.962L313.079 75.2041H311.056L307.166 85H309.292L309.894 83.3662H314.221L314.836 85ZM312.067 77.5898L313.517 81.5137H310.598L312.067 77.5898ZM324.331 75.1973V78.6836H319.936V75.1973H317.892V85H319.936V80.5771H324.331V85H326.382V75.1973H324.331ZM337.087 85V75.1973H335.966L330.271 81.3975V75.1973H328.228V85H329.355L335.043 78.793V85H337.087ZM338.427 75.1973V77.0908H341.646V85H343.697V77.0908H346.924V75.1973H338.427ZM353.746 85H355.872L351.989 75.2041H349.966L346.076 85H348.202L348.804 83.3662H353.131L353.746 85ZM350.978 77.5898L352.427 81.5137H349.508L350.978 77.5898ZM358.846 79.1758V77.0908H361.327C361.73 77.0908 361.915 77.125 362.079 77.1934C362.476 77.3506 362.77 77.6787 362.77 78.1367C362.77 78.6084 362.462 78.9229 362.079 79.0801C361.908 79.1484 361.724 79.1758 361.334 79.1758H358.846ZM358.846 85V81.0557H361.601C362.435 81.0557 363.002 80.8916 363.467 80.5977C364.273 80.0918 364.786 79.21 364.786 78.1367C364.786 77.0225 364.273 76.1543 363.48 75.6621C363.009 75.3613 362.435 75.2041 361.601 75.2041H356.802V85H358.846ZM372.456 75.1973V78.6836H368.061V75.1973H366.017V85H368.061V80.5771H372.456V85H374.507V75.1973H372.456ZM385.861 80.0986C385.861 77.3506 383.742 75.1973 380.864 75.1973C377.993 75.1973 375.874 77.3506 375.874 80.0986C375.874 82.8535 377.993 85 380.864 85C383.742 85 385.861 82.8535 385.861 80.0986ZM383.763 80.0986C383.763 81.7939 382.628 83.1133 380.864 83.1133C379.107 83.1133 377.973 81.7939 377.973 80.0986C377.973 78.4102 379.107 77.0771 380.864 77.0771C382.628 77.0771 383.763 78.4102 383.763 80.0986ZM387.256 81.1855H392.595V79.3125H387.256V81.1855ZM392.39 75.1973V77.0908H395.609V85H397.66V77.0908H400.887V75.1973H392.39ZM402.233 75.1973V85H409.131V83.1133H404.284V80.5635H407.982V78.6973H404.284V77.084H409.131V75.1973H402.233ZM409.849 85H412.371L414.777 81.4727L417.184 85H419.713L415.96 79.8252L419.31 75.2041H416.801L414.777 78.1641L412.754 75.2041H410.245L413.595 79.8252L409.849 85ZM427.185 75.1973V78.6836H422.789V75.1973H420.745V85H422.789V80.5771H427.185V85H429.235V75.1973H427.185ZM439.94 85V75.1973H438.819L433.125 81.3975V75.1973H431.081V85H432.209L437.896 78.793V85H439.94ZM447.357 75.1973V79.3193C446.783 79.5928 446.134 79.7295 445.416 79.7295C444.206 79.7295 443.522 79.2646 443.522 78.0479V75.1973H441.479V77.7471C441.479 78.6699 441.52 79.4492 442.019 80.2148C442.647 81.1855 443.775 81.6162 445.143 81.6162C445.929 81.6162 446.667 81.5 447.357 81.2676V85H449.408V75.1973H447.357ZM451.261 75.1973V85H458.158V83.1133H453.312V80.5635H457.01V78.6973H453.312V77.084H458.158V75.1973H451.261ZM468.515 78.5605C467.858 76.3799 465.944 75.1904 463.777 75.1904C460.947 75.1904 458.78 77.3506 458.78 80.0986C458.78 82.9014 461.05 85 463.777 85C466.02 85 467.947 83.6191 468.535 81.5615L466.587 80.96C466.163 82.3408 465.151 83.127 463.777 83.127C462.034 83.127 460.886 81.7324 460.886 80.0986C460.886 78.3828 462.062 77.0566 463.777 77.0566C465.158 77.0566 466.17 77.8564 466.58 79.1895L468.515 78.5605ZM474.824 75.1973L471.837 78.9092V75.1973H469.786V85H471.837V80.1328L475.515 85H478.037L473.717 79.4697L477.285 75.1973H474.824ZM487.819 85V75.1973H486.698L481.004 81.3975V75.1973H478.96V85H480.088L485.775 78.793V85H487.819ZM496.501 73.5225L495.141 72.2441L492.96 74.5684L494.313 75.8467L496.501 73.5225ZM498.524 85V75.1973H497.403L491.709 81.3975V75.1973H489.665V85H490.793L496.48 78.793V85H498.524ZM509.031 75.1973L506.044 78.9092V75.1973H503.993V85H506.044V80.1328L509.722 85H512.244L507.924 79.4697L511.492 75.1973H509.031ZM521.938 80.0986C521.938 77.3506 519.818 75.1973 516.94 75.1973C514.069 75.1973 511.95 77.3506 511.95 80.0986C511.95 82.8535 514.069 85 516.94 85C519.818 85 521.938 82.8535 521.938 80.0986ZM519.839 80.0986C519.839 81.7939 518.704 83.1133 516.94 83.1133C515.184 83.1133 514.049 81.7939 514.049 80.0986C514.049 78.4102 515.184 77.0771 516.94 77.0771C518.704 77.0771 519.839 78.4102 519.839 80.0986ZM524.453 75.1973V80.543C524.453 81.4658 524.392 82.0264 524.118 82.4365C523.906 82.7578 523.619 82.9492 523.223 82.9492C523.011 82.9492 522.819 82.9014 522.648 82.7988L521.664 84.5967C522.143 84.8633 522.669 85 523.223 85C524.323 85 525.226 84.4395 525.827 83.5371C526.326 82.7852 526.497 81.8965 526.497 80.7344V77.084H529.519V85H531.562V75.1973H524.453ZM535.145 75.1973V80.543C535.145 81.4658 535.083 82.0264 534.81 82.4365C534.598 82.7578 534.311 82.9492 533.914 82.9492C533.702 82.9492 533.511 82.9014 533.34 82.7988L532.355 84.5967C532.834 84.8633 533.36 85 533.914 85C535.015 85 535.917 84.4395 536.519 83.5371C537.018 82.7852 537.188 81.8965 537.188 80.7344V77.084H540.21V85H542.254V75.1973H535.145ZM544.106 75.1973V85H551.004V83.1133H546.157V80.5635H549.855V78.6973H546.157V77.084H551.004V75.1973H544.106ZM559.193 77.0908V83.1064H555.29C555.721 82.04 555.98 81.0146 556.138 80.0166C556.295 79.0117 556.343 78.041 556.35 77.0908H559.193ZM561.244 75.1973H554.347C554.312 76.6875 554.319 78.2803 554.101 79.8047C553.937 80.9736 553.643 82.1016 553.103 83.1064H551.947V87.0166H553.998V85H560.54V87.0166H562.584V83.1064H561.244V75.1973ZM576.734 85L572.729 79.4697L576.051 75.1973H573.679L570.876 78.9229V75.1973H568.839V78.9229L566.022 75.1973H563.644L566.973 79.4697L562.967 85H565.4L568.839 80.126V85H570.876V80.126L574.294 85H576.734ZM582.524 73.29C581.294 75.3887 580.747 77.7744 580.747 80.0918C580.747 82.3408 581.369 85.082 582.524 86.9004H584.411C583.276 84.8223 582.791 82.3613 582.791 80.0918C582.791 77.8223 583.324 75.1631 584.411 73.29H582.524ZM592.566 85H594.692L590.81 75.2041H588.786L584.896 85H587.022L587.624 83.3662H591.951L592.566 85ZM589.798 77.5898L591.247 81.5137H588.328L589.798 77.5898ZM602.062 75.1973V78.6836H597.666V75.1973H595.622V85H597.666V80.5771H602.062V85H604.112V75.1973H602.062ZM615.467 80.0986C615.467 77.3506 613.348 75.1973 610.47 75.1973C607.599 75.1973 605.479 77.3506 605.479 80.0986C605.479 82.8535 607.599 85 610.47 85C613.348 85 615.467 82.8535 615.467 80.0986ZM613.368 80.0986C613.368 81.7939 612.233 83.1133 610.47 83.1133C608.713 83.1133 607.578 81.7939 607.578 80.0986C607.578 78.4102 608.713 77.0771 610.47 77.0771C612.233 77.0771 613.368 78.4102 613.368 80.0986ZM620.464 75.1973V85H622.515V77.0908H626.91V85H628.961V75.1973H620.464ZM640.322 80.0986C640.322 77.3506 638.203 75.1973 635.325 75.1973C632.454 75.1973 630.335 77.3506 630.335 80.0986C630.335 82.8535 632.454 85 635.325 85C638.203 85 640.322 82.8535 640.322 80.0986ZM638.224 80.0986C638.224 81.7939 637.089 83.1133 635.325 83.1133C633.568 83.1133 632.434 81.7939 632.434 80.0986C632.434 78.4102 633.568 77.0771 635.325 77.0771C637.089 77.0771 638.224 78.4102 638.224 80.0986ZM651.759 75.1973V78.6836H647.363V75.1973H645.319V85H647.363V80.5771H651.759V85H653.81V75.1973H651.759ZM657.706 85V77.0908H662.553V75.1973H655.655V85H657.706ZM663.407 75.1973V77.0908H666.627V85H668.678V77.0908H671.904V75.1973H663.407ZM678.289 75.1973L675.302 78.9092V75.1973H673.251V85H675.302V80.1328L678.979 85H681.502L677.182 79.4697L680.75 75.1973H678.289ZM681.994 73.29C683.115 75.334 683.614 77.8633 683.614 80.0918C683.614 82.3203 683.061 85.0615 681.994 86.9004H683.881C685.098 84.8838 685.658 82.3408 685.658 80.0918C685.658 77.8291 685.043 75.1084 683.881 73.29H681.994Z" fill="white"/>
<defs>
<clipPath id="clip0_1_394">
<rect width="100" height="140" fill="white"/>
</clipPath>
</defs>
</svg>
