<svg width="248" height="90" viewBox="0 0 248 90" fill="none" xmlns="http://www.w3.org/2000/svg">
<path fill-rule="evenodd" clip-rule="evenodd" d="M61.7416 30.7432L62.4274 29.9687V28.3477L61.9281 27.8221C61.5002 27.374 61.0668 26.9259 60.6334 26.4833C59.6842 25.4985 58.7022 24.4806 57.7531 23.4682C56.5187 22.1404 55.2953 20.8071 54.0718 19.4738C53.4354 18.7823 52.8045 18.0907 52.1681 17.3992C52.0309 17.2498 51.8828 17.117 51.7676 17.0119L51.2245 16.4974C51.1586 16.8958 51.0654 17.283 50.9556 17.6703C51.0928 17.8086 51.3452 18.0907 51.4384 18.1959C52.0694 18.8763 52.6948 19.5623 53.3202 20.2483C54.5546 21.5927 55.789 22.9371 57.0344 24.2648C57.978 25.2828 58.9601 26.2952 59.9092 27.2799C60.3426 27.7336 60.7815 28.1817 61.2149 28.6354L61.3905 28.8179V29.5205L60.9625 30.0019C60.8034 30.1789 60.6388 30.3615 60.4797 30.5385C56.7381 34.815 55.3556 39.9767 56.2444 46.3222C56.5735 48.6403 57.3416 50.9694 58.0877 53.2155L58.3566 54.0288C58.4773 54.3994 58.6035 54.7701 58.7241 55.1463C59.6733 57.9623 60.6498 60.8833 60.7376 63.9814C60.8802 68.8112 59.4483 73.2149 56.4803 77.0654C53.8908 80.4346 50.8953 82.4152 47.3238 83.1289C46.0235 83.3889 44.6959 83.577 43.4121 83.7651C42.3368 83.9144 41.2231 84.0749 40.1423 84.274C36.2525 84.9877 33.685 86.3265 31.8252 88.6059L31.6331 88.8327H30.8157L30.6292 88.5782C29.1314 86.5091 26.9205 85.2477 23.4641 84.4953C21.928 84.1579 20.326 83.92 18.7789 83.6932C17.7475 83.5382 16.6777 83.3833 15.6298 83.1952C12.0199 82.5535 8.93112 80.5895 6.44037 77.3586C2.52869 72.291 1.15713 66.814 2.35313 61.0825C2.94016 58.2665 3.85636 55.5004 4.76159 52.9334C6.81892 47.0912 7.21393 42.4939 6.04537 38.0348C5.14562 34.5992 3.65886 31.9548 1.49179 29.9521L1.29429 29.764V28.7737L1.51923 28.5856C1.57957 28.5358 1.63444 28.4915 1.69478 28.4473C1.78256 28.3809 1.87034 28.3145 1.92521 28.2536C2.91821 27.1693 3.91122 26.0794 4.89874 24.9951C5.94661 23.8444 6.99448 22.6992 8.04784 21.5484C8.86529 20.6577 9.68822 19.767 10.5112 18.8819L11.6962 17.5984C11.7236 17.6869 11.751 17.7809 11.784 17.875C11.6084 17.2996 11.4712 16.7077 11.389 16.1046L9.54558 18.0907C8.72265 18.9759 7.89971 19.8666 7.08226 20.7629C6.00696 21.9357 4.92617 23.1141 3.85636 24.2925C2.89627 25.3436 1.93618 26.3948 0.976088 27.4459C0.943171 27.4736 0.910254 27.4957 0.877336 27.5234C0.811502 27.5732 0.740181 27.6285 0.674346 27.6838L0.0214844 28.2204V30.2729L0.597539 30.8096C2.58904 32.6574 3.97157 35.1193 4.81096 38.3335C5.91918 42.5547 5.53515 46.9363 3.55462 52.5461C2.63842 55.1518 1.70576 57.9623 1.10227 60.8446C-0.165047 66.9246 1.28332 72.7225 5.40896 78.0778C8.08076 81.5411 11.4109 83.6489 15.3116 84.3404C16.3759 84.5285 17.4512 84.689 18.4881 84.8439C20.0901 85.0818 21.5988 85.3031 23.1021 85.635C26.2676 86.3265 28.2591 87.4441 29.5813 89.2642L30.1135 90H32.0666L32.5987 89.3472C34.2775 87.2892 36.6311 86.0776 40.2301 85.4192C41.2889 85.2256 42.3916 85.0707 43.456 84.9158C44.7562 84.7332 46.1003 84.5396 47.4335 84.274C51.2354 83.5161 54.5491 81.3308 57.2758 77.7846C60.4139 73.7128 61.9281 69.0546 61.7745 63.9427C61.6812 60.6786 60.6772 57.6746 59.7062 54.7701C59.58 54.3994 59.0643 52.8449 59.0643 52.8449C58.3401 50.643 57.583 48.3692 57.2758 46.1563C56.4364 40.1703 57.7257 35.3184 61.2314 31.313C61.4014 31.1194 61.5715 30.9313 61.7416 30.7432Z" fill="#BF272F"/>
<path d="M76.1823 27.7762V32.9757H81.2931V27.7762H83.8485V40.6329H81.2931V35.0024H76.1823V40.6329H73.627V27.7762H76.1823Z" fill="#BF272F"/>
<path d="M94.7265 40.6329V31.0041H94.7083L89.8158 40.6329H86.6875V27.7762H89.1429V37.3958H89.1792L94.0354 27.7762H97.1819V40.6329H94.7265Z" fill="#BF272F"/>
<path d="M105.894 34.6631H105.857L102.302 40.6329H98.9551L103.393 33.8377L99.1733 27.7762H102.32L105.894 33.3059V27.7762H108.458V33.3059L112.05 27.7762H115.179L110.959 33.8377L115.397 40.6329H112.05L108.513 34.6631H108.458V40.6329H105.894V34.6631Z" fill="#BF272F"/>
<path d="M124.79 27.7762V29.8028H119.825V32.9757H124.372V35.0024H119.825V38.6063H124.845V40.6329H117.27V27.7762H124.79Z" fill="#BF272F"/>
<path d="M134.939 27.7762V29.8028H129.983V40.6329H127.428V27.7762H134.939Z" fill="#BF272F"/>
<path d="M148.444 34.1679C148.444 38.0561 146.234 40.8622 142.197 40.8622C138.095 40.8622 135.949 38.1111 135.949 34.1679C135.949 30.2063 138.141 27.5561 142.197 27.5561C146.198 27.5561 148.444 30.2613 148.444 34.1679ZM145.789 34.1679C145.789 31.9028 144.734 29.5827 142.197 29.5827C139.65 29.5827 138.614 31.9028 138.614 34.1679C138.614 36.488 139.578 38.8356 142.197 38.8356C144.825 38.8356 145.789 36.488 145.789 34.1679Z" fill="#BF272F"/>
<path d="M154.38 27.7762C157.154 27.7762 159.7 28.5923 159.7 31.6644C159.7 34.6631 157.527 35.7543 154.781 35.7543H153.344V40.6329H150.779V27.7762H154.38ZM154.599 33.7094C155.881 33.7094 157.027 33.3059 157.027 31.8111C157.027 30.3163 155.917 29.8028 154.599 29.8028H153.344V33.7094H154.599Z" fill="#BF272F"/>
<path d="M173.825 34.1679C173.825 38.0561 171.615 40.8622 167.578 40.8622C163.485 40.8622 161.33 38.1111 161.33 34.1679C161.33 30.2063 163.522 27.5561 167.578 27.5561C171.579 27.5561 173.825 30.2613 173.825 34.1679ZM171.179 34.1679C171.179 31.9028 170.115 29.5827 167.578 29.5827C165.04 29.5827 163.995 31.9028 163.995 34.1679C163.995 36.4879 164.968 38.8355 167.578 38.8355C170.206 38.8355 171.179 36.4879 171.179 34.1679Z" fill="#BF272F"/>
<path d="M177.298 42.843H174.834V38.6063C175.953 38.6063 176.444 38.0744 176.444 36.3229V27.7762H184.846V38.6063H185.665V42.843H183.219V40.6329H177.298V42.843ZM182.291 38.6063V29.8028H178.89V36.3229C178.89 38.1845 178.271 38.6063 178.271 38.6063H182.291Z" fill="#BF272F"/>
<path d="M194.06 40.8622C189.931 40.8622 187.066 38.7714 187.066 34.4246C187.066 30.0229 189.731 27.5561 194.06 27.5561C194.896 27.5561 196.015 27.7211 196.951 28.0879L196.76 30.2613C195.815 29.7111 194.914 29.5827 194.005 29.5827C191.377 29.5827 189.731 31.6093 189.731 34.2412C189.731 36.8639 191.341 38.8355 194.06 38.8355C195.078 38.8355 196.251 38.6063 196.851 38.2945L196.961 40.4495C196.033 40.6696 195.033 40.8622 194.06 40.8622Z" fill="#BF272F"/>
<path d="M201.405 27.7762V33.3059L206.007 27.7762H209.171L203.906 33.8377L209.371 40.6329H206.025L201.441 34.6631H201.405V40.6329H198.85V27.7762H201.405Z" fill="#BF272F"/>
<path d="M218.949 40.6329V31.0041H218.931L214.038 40.6329H210.91V27.7762H213.356V37.3958H213.393L218.258 27.7762H221.395V40.6329H218.949Z" fill="#BF272F"/>
<path d="M232.144 40.6329V31.0041H232.126L227.234 40.6329H224.105V27.7762H226.552V37.3958H226.588L231.453 27.7762H234.591V40.6329H232.144ZM229.153 25.8412C230.117 25.8412 230.799 25.3093 231.026 24.3648H232.144C232.035 26.0246 230.799 27.1526 229.153 27.1526C227.525 27.1526 226.261 26.0246 226.188 24.3648H227.325C227.525 25.3093 228.18 25.8412 229.153 25.8412Z" fill="#BF272F"/>
<path d="M77.6849 48.0792V49.3172H74.6284V55.9932H73.0547V48.0792H77.6849Z" fill="#2B2A29"/>
<path d="M77.8457 48.0793H79.6281L81.7197 52.4902L83.5021 48.0793H85.1299L81.8015 55.9932H80.1646L80.9558 54.1775L77.8457 48.0793Z" fill="#2B2A29"/>
<path d="M88.7227 48.0793L90.5779 54.0766H90.5961L92.4785 48.0793H94.9884V55.9932H93.4879V49.4548H93.4607L91.3418 55.9932H89.8413L87.7224 49.4548L87.6951 49.4823V55.9932H86.1855V48.0793H88.7227Z" fill="#2B2A29"/>
<path d="M100.845 48.0793L103.928 55.9932H102.182L101.5 54.1775H98.317L97.6349 55.9932H95.998L99.0627 48.0793H100.845ZM99.9084 49.6657L98.7717 52.9303H101.063L99.9266 49.6657H99.9084Z" fill="#2B2A29"/>
<path d="M106.511 48.0793V51.2705H109.666V48.0793H111.24V55.9932H109.666V52.5177H106.511V55.9932H104.938V48.0793H106.511Z" fill="#2B2A29"/>
<path d="M117.933 55.9932V50.06H117.924L114.905 55.9932H112.986V48.0793H114.496V53.9941H114.514L117.506 48.0793H119.443V55.9932H117.933Z" fill="#2B2A29"/>
<path d="M120.371 49.3172V48.0792H126.446V49.3172H124.2V55.9932H122.617V49.3172H120.371Z" fill="#2B2A29"/>
<path d="M131.477 48.0793L134.559 55.9932H132.813L132.14 54.1775H128.958L128.266 55.9932H126.639L129.703 48.0793H131.477ZM130.54 49.6657L129.403 52.9303H131.704L130.567 49.6657H130.54Z" fill="#2B2A29"/>
<path d="M137.786 48.0792C139.496 48.0792 141.06 48.5744 141.06 50.4635C141.06 52.3159 139.723 52.9853 138.032 52.9853H137.149V55.9932H135.576V48.0792H137.786ZM137.922 51.729C138.714 51.729 139.423 51.4814 139.423 50.5644C139.423 49.6382 138.732 49.3172 137.922 49.3172H137.149V51.729H137.922Z" fill="#2B2A29"/>
<path d="M144.022 48.0792V51.2705H147.169V48.0792H148.751V55.9932H147.169V52.5177H144.022V55.9932H142.449V48.0792H144.022Z" fill="#2B2A29"/>
<path d="M157.894 52.0133C157.894 54.4068 156.53 56.1308 154.038 56.1308C151.519 56.1308 150.191 54.4434 150.191 52.0133C150.191 49.574 151.546 47.9325 154.038 47.9325C156.503 47.9325 157.894 49.6015 157.894 52.0133ZM156.257 52.0133C156.257 50.6194 155.602 49.1888 154.038 49.1888C152.474 49.1888 151.837 50.6194 151.837 52.0133C151.837 53.4439 152.429 54.8836 154.038 54.8836C155.657 54.8836 156.257 53.4439 156.257 52.0133Z" fill="#2B2A29"/>
<path d="M158.809 53.5631V52.3159H161.774V53.5631H158.809Z" fill="#2B2A29"/>
<path d="M162.256 49.3172V48.0793H168.331V49.3172H166.075V55.9932H164.502V49.3172H162.256Z" fill="#2B2A29"/>
<path d="M173.969 48.0793V49.3172H170.904V51.2705H173.715V52.5177H170.904V54.7461H174.006V55.9932H169.33V48.0793H173.969Z" fill="#2B2A29"/>
<path d="M175.022 48.0793H176.85L178.487 50.9037L180.169 48.0793H181.861L179.496 51.8758L182.07 55.9932H180.224L178.405 52.912L176.568 55.9932H174.795L177.368 51.8758L175.022 48.0793Z" fill="#2B2A29"/>
<path d="M184.673 48.0792V51.2705H187.828V48.0792H189.402V55.9932H187.828V52.5177H184.673V55.9932H183.1V48.0792H184.673Z" fill="#2B2A29"/>
<path d="M196.096 55.9932V50.06H196.086L193.067 55.9932H191.148V48.0793H192.649V53.9941H192.676L195.668 48.0793H197.605V55.9932H196.096Z" fill="#2B2A29"/>
<path d="M200.604 48.0793V50.5644C200.604 51.3897 201.077 51.8299 201.841 51.8299C202.469 51.8299 203.033 51.564 203.451 51.2522V48.0793H205.033V55.9932H203.451V52.5452C202.86 52.8937 202.06 53.1596 201.314 53.1596C200.022 53.1596 199.031 52.3893 199.031 50.6928V48.0793H200.604Z" fill="#2B2A29"/>
<path d="M211.493 48.0792V49.3172H208.427V51.2705H211.238V52.5177H208.427V54.746H211.529V55.9932H206.854V48.0792H211.493Z" fill="#2B2A29"/>
<path d="M217.039 56.1308C214.502 56.1308 212.729 54.8469 212.729 52.1692C212.729 49.4548 214.375 47.9325 217.039 47.9325C217.557 47.9325 218.239 48.0426 218.821 48.2626L218.703 49.6015C218.121 49.2622 217.566 49.1888 217.012 49.1888C215.384 49.1888 214.375 50.436 214.375 52.0592C214.375 53.6731 215.366 54.8836 217.039 54.8836C217.666 54.8836 218.394 54.7461 218.758 54.5535L218.831 55.8832C218.258 56.0207 217.639 56.1308 217.039 56.1308Z" fill="#2B2A29"/>
<path d="M221.567 48.0793V51.4814L224.395 48.0793H226.35L223.104 51.8024L226.468 55.9932H224.413L221.585 52.3159H221.567V55.9932H219.984V48.0793H221.567Z" fill="#2B2A29"/>
<path d="M232.37 55.9932V50.06H232.352L229.342 55.9932H227.414V48.0793H228.924V53.9941H228.951L231.943 48.0793H233.88V55.9932H232.37Z" fill="#2B2A29"/>
<path d="M240.49 55.9932V50.06H240.481L237.462 55.9932H235.543V48.0792H237.043V53.9941H237.071L240.063 48.0792H242V55.9932H240.49ZM238.644 46.8871C239.244 46.8871 239.663 46.5478 239.808 45.9701H240.49C240.426 46.9971 239.663 47.6849 238.644 47.6849C237.644 47.6849 236.871 46.9971 236.825 45.9701H237.516C237.644 46.5478 238.053 46.8871 238.644 46.8871Z" fill="#2B2A29"/>
<path d="M74.6279 63.4304V66.8325L77.4652 63.4304H79.4113L76.1739 67.1627L79.5386 71.3535H77.4743L74.6552 67.6762H74.6279V71.3535H73.0547V63.4304H74.6279Z" fill="#2B2A29"/>
<path d="M87.8764 67.3736C87.8764 69.767 86.5123 71.491 84.0296 71.491C81.5015 71.491 80.1738 69.7945 80.1738 67.3736C80.1738 64.9251 81.5288 63.2928 84.0296 63.2928C86.4941 63.2928 87.8764 64.9618 87.8764 67.3736ZM86.2485 67.3736C86.2485 65.9705 85.5938 64.5399 84.0296 64.5399C82.4655 64.5399 81.8198 65.9705 81.8198 67.3736C81.8198 68.795 82.42 70.2439 84.0296 70.2439C85.6484 70.2439 86.2485 68.795 86.2485 67.3736Z" fill="#2B2A29"/>
<path d="M94.661 63.4304V71.3535H93.0878V64.6775H90.9962V69.3544C90.9962 70.198 90.4505 71.4911 88.8409 71.4911L88.459 70.1063C89.4866 70.1063 89.4866 69.2718 89.4866 68.7033V63.4304H94.661Z" fill="#2B2A29"/>
<path d="M101.757 63.4304V71.3535H100.174V64.6775H98.0828V69.3544C98.0828 70.198 97.5462 71.4911 95.9366 71.4911L95.5547 70.1063C96.5732 70.1063 96.5732 69.2718 96.5732 68.7033V63.4304H101.757Z" fill="#2B2A29"/>
<path d="M108.13 63.4304V64.6775H105.074V66.6308H107.876V67.878H105.074V70.1063H108.167V71.3535H103.5V63.4304H108.13Z" fill="#2B2A29"/>
<path d="M110.448 72.7107H108.93V70.1063C109.621 70.1063 109.921 69.7762 109.921 68.6941V63.4304H115.104V70.1063H115.605V72.7107H114.095V71.3535H110.448V72.7107ZM113.522 70.1063V64.6775H111.431V68.6941C111.431 69.8404 111.049 70.1063 111.049 70.1063H113.522Z" fill="#2B2A29"/>
<path d="M120.471 67.6762H120.444L118.252 71.3535H116.197L118.925 67.1627L116.325 63.4304H118.262L120.471 66.8325V63.4304H122.045V66.8325L124.264 63.4304H126.191L123.591 67.1627L126.319 71.3535H124.264L122.081 67.6762H122.045V71.3535H120.471V67.6762Z" fill="#2B2A29"/>
<path fill-rule="evenodd" clip-rule="evenodd" d="M60.0027 29.1886C59.6735 28.8456 59.3444 28.5026 59.0152 28.1596C58.0606 27.1748 57.0731 26.1513 56.1185 25.1279C54.8731 23.7946 53.6387 22.4502 52.4043 21.1058C51.8008 20.442 51.0821 19.7228 50.4731 19.0644C50.4731 19.0644 50.4731 19.0644 50.4731 19.0589C47.9111 25.1998 40.3181 29.6478 31.3426 29.6478C22.2629 29.6478 14.5932 25.1002 12.1189 18.8542C12.1518 18.9648 12.1573 19.0257 12.1189 18.9925L11.4221 19.7449C10.6047 20.6301 9.78175 21.5152 8.9643 22.4059C7.91643 23.5511 6.86856 24.7019 5.82069 25.8471C4.82768 26.9369 3.83467 28.0268 2.84166 29.1111C2.77583 29.1831 2.70451 29.2494 2.63867 29.3048C4.82219 31.4402 6.33091 34.1953 7.25808 37.7139C8.49248 42.433 8.0865 47.2572 5.94138 53.3538C5.05261 55.8821 4.14739 58.5985 3.57682 61.3425C2.45763 66.6923 3.75238 71.8208 7.42815 76.5841C9.75431 79.5992 12.5084 81.3585 15.8495 81.9505C16.8754 82.1386 17.9343 82.2935 18.9602 82.4428C20.5293 82.6752 22.1477 82.9186 23.7332 83.2616C26.1307 83.7872 29.1097 84.7222 31.2603 87.3389C33.9047 84.4289 37.4378 83.4884 39.9176 83.0293C41.0258 82.8301 42.1505 82.6697 43.2368 82.5148C44.5041 82.3322 45.8098 82.1441 47.0772 81.8951C50.3415 81.2423 53.0955 79.4111 55.493 76.2964C58.2746 72.6783 59.6187 68.5511 59.487 64.0146C59.3992 61.1102 58.4556 58.2831 57.5394 55.5446C57.4187 55.174 57.2925 54.8033 57.1663 54.4271L56.8975 53.6138C56.1404 51.3124 55.3504 48.928 55.0102 46.4993C54.0776 39.8605 55.6028 34.2119 59.5419 29.7086C59.6955 29.5316 59.8491 29.3601 60.0027 29.1886ZM48.2018 73.0323H35.962L35.3586 71.3173L36.5107 71.013C37.7725 70.6479 38.6229 70.161 39.0563 69.5525C39.4897 68.9495 39.7091 67.8762 39.7091 66.3271V56.203H23.3711V66.6812C23.3711 68.1252 23.5741 69.132 23.9691 69.7074C24.3696 70.2772 25.1871 70.7475 26.4215 71.1126L27.4694 71.4169L26.9207 73.0323H14.681L14.083 71.3173L15.2296 71.013C16.4969 70.6479 17.3418 70.161 17.7752 69.5525C18.2086 68.9495 18.428 67.8762 18.428 66.3271V43.5616C18.428 42.0181 18.2086 40.9393 17.7752 40.3362C17.3418 39.7332 16.4969 39.2464 15.2296 38.8757L14.083 38.5714L14.681 36.8619H25.6205L26.2679 37.6697L25.6205 38.5714C24.7866 39.6834 24.205 40.8563 23.8704 42.1011C23.5357 43.3458 23.3711 44.9723 23.3711 46.9861V53.1325H39.7091V43.5616C39.7091 42.0181 39.4897 40.9393 39.0563 40.3362C38.6229 39.7332 37.7725 39.2464 36.5107 38.8757L35.3586 38.5714L35.962 36.8619H46.9016L47.549 37.6697L46.9016 38.5714C46.0677 39.6834 45.4861 40.8563 45.1515 42.1011C44.8168 43.3458 44.6522 44.9723 44.6522 46.9861V66.6812C44.6522 68.1252 44.8497 69.132 45.2502 69.7074C45.6507 70.2772 46.4682 70.7475 47.6971 71.1126L48.7505 71.4169L48.2018 73.0323Z" fill="#BF272F"/>
<path d="M39.7585 6.08005H34.2339V7.08693H40.2194V19.9551H22.23V7.08693H25.4779V6.08005H22.6909C21.7692 6.08005 21.0176 6.83244 21.0176 7.76741V19.6011C21.0176 20.5582 21.8076 21.5263 22.7457 21.7144L29.0384 22.9869L27.4694 23.5512C26.9976 23.7171 26.5312 23.9108 26.1637 24.0823H36.2858C35.9127 23.9108 35.4464 23.7171 34.9855 23.5512L33.411 22.9869L39.7146 21.7144C40.6473 21.5263 41.4318 20.5582 41.4318 19.6011V7.76741C41.4318 6.83244 40.6802 6.08005 39.7585 6.08005Z" fill="#BF272F"/>
<path fill-rule="evenodd" clip-rule="evenodd" d="M35.1994 14.0079C35.172 14.3121 35.0567 14.5722 34.936 14.8322C34.7934 15.1365 34.6453 15.4352 34.5301 15.745C34.4478 15.9663 34.3929 16.2042 34.349 16.4366C34.2996 16.7187 34.2612 17.0009 34.2393 17.283C34.2228 17.4545 34.2448 17.626 34.2558 17.7975C34.2612 17.9856 34.1844 18.0852 34.0253 18.1792C33.9321 18.2346 33.8443 18.3342 33.8059 18.4393C33.7455 18.5776 33.7291 18.738 33.7016 18.8929C33.6797 19.0368 33.6578 19.0644 33.5096 19.0644C33.2627 19.0644 33.0104 19.0644 32.7635 19.0644C32.6044 19.0644 32.5715 19.0146 32.6428 18.8708C32.7909 18.5776 32.9994 18.3231 33.2737 18.1405C33.4383 18.0299 33.5206 17.8639 33.5809 17.6979C33.6742 17.4103 33.762 17.1226 33.8059 16.8238C33.8827 16.3093 33.9814 15.7837 33.8937 15.2637C33.8498 15.0092 33.7291 14.7658 33.6194 14.5279C33.4493 14.1683 33.1859 13.8696 32.9336 13.5708C32.769 13.3772 32.6812 13.1504 32.6318 12.9125C32.6209 12.8461 32.5934 12.8239 32.5331 12.8461C32.374 12.8903 32.2149 12.9401 32.0558 12.9789C31.8967 13.0176 31.7376 13.0618 31.5785 13.0729C31.2603 13.0895 30.9421 13.0895 30.6184 13.0895C30.5416 13.0895 30.5032 13.095 30.5087 13.1836C30.5306 13.4934 30.4044 13.7644 30.3002 14.0466C30.2398 14.2015 30.2508 14.3785 30.2508 14.5445C30.2453 14.8377 30.3112 15.1143 30.3825 15.402C30.4099 15.5182 30.3605 15.6565 30.3331 15.7837C30.2947 15.9442 30.2124 16.0991 30.2014 16.2595C30.1905 16.5527 30.2069 16.8404 30.2343 17.1281C30.2563 17.366 30.3441 17.5928 30.366 17.8252C30.377 17.9303 30.3221 18.0575 30.2673 18.1571C30.1685 18.3342 30.1191 18.5167 30.1136 18.7159C30.1082 19.1031 30.1356 19.0534 29.768 19.0589C29.5979 19.0644 29.4279 19.0589 29.2578 19.0534C29.1426 19.0534 29.1206 19.0202 29.159 18.915C29.2468 18.6384 29.373 18.3784 29.5979 18.1903C29.7845 18.0299 29.7954 17.8141 29.79 17.6094C29.7845 17.2664 29.7296 16.9234 29.6857 16.5859C29.6583 16.3646 29.6199 16.1434 29.5815 15.9221C29.5541 15.7948 29.5376 15.6676 29.4827 15.5569C29.395 15.3854 29.4169 15.2139 29.4334 15.0424C29.4553 14.8045 29.4443 14.5777 29.362 14.3564C29.3072 14.1904 29.2523 14.03 29.1865 13.864C29.0658 13.5432 28.8573 13.2721 28.6653 12.9899C28.5391 12.8074 28.4129 12.7354 28.1935 12.8074C28.0947 12.835 27.985 12.8184 27.8808 12.8074C27.6119 12.7686 27.3486 12.741 27.0907 12.669C26.8219 12.5971 26.5641 12.492 26.3117 12.3814C26.0922 12.2818 25.8673 12.2265 25.6424 12.2873C25.4339 12.3371 25.2638 12.4754 25.1486 12.6524C24.995 12.8903 24.8633 13.1448 24.7371 13.4048C24.6494 13.5819 24.5726 13.77 24.5287 13.9581C24.4848 14.1462 24.4903 14.3398 24.4848 14.5334C24.4848 14.6939 24.4519 14.8211 24.2763 14.8764C24.2434 14.8875 24.2159 14.9373 24.1995 14.976C24.1885 15.0037 24.194 15.0424 24.1995 15.0756C24.2598 15.4407 24.2598 15.3467 23.9855 15.5569C23.8045 15.7008 23.6125 15.8335 23.4204 15.9663C23.3875 15.9884 23.3327 16.005 23.2997 15.9884C23.2723 15.9718 23.2559 15.911 23.2559 15.8778C23.2833 15.6233 23.2778 15.3633 23.3491 15.1254C23.4204 14.893 23.5741 14.6883 23.6838 14.4671C23.7825 14.279 23.8813 14.0853 23.9691 13.8917C24.0733 13.6815 24.1666 13.4657 24.2544 13.2499C24.3312 13.0784 24.3915 12.9014 24.4573 12.7299C24.611 12.2984 24.7481 11.8613 25.1047 11.5515C25.3132 11.3689 25.5546 11.286 25.8289 11.2804C26.0538 11.2749 26.2843 11.2915 26.5092 11.2583C26.767 11.214 27.0194 11.1311 27.2443 10.9927C27.3102 10.954 27.365 10.9042 27.3321 10.8102C27.2059 10.5225 27.173 10.2182 27.1675 9.90288C27.1621 9.60413 27.1785 9.31092 27.2773 9.02877C27.4199 8.60278 27.6394 8.20998 27.9411 7.86698C28.1935 7.56823 28.4019 7.24183 28.5501 6.87669C28.6324 6.68859 28.7311 6.50602 28.8244 6.32346C28.8628 6.25707 28.8299 6.22941 28.775 6.22388C28.5556 6.20728 28.3745 6.10216 28.188 6.01365C28.0947 5.97492 27.9685 5.97492 27.8643 5.98599C27.6887 5.99152 27.5516 5.95832 27.4912 5.76469C27.4857 5.74809 27.4693 5.73703 27.4638 5.72597C27.2498 5.5102 27.2992 5.23359 27.5845 5.11741C27.7436 5.05655 27.9192 5.02336 28.0892 4.9625C28.3361 4.86845 28.561 4.73568 28.7531 4.54205C28.8354 4.45906 28.9286 4.37608 29.0164 4.29862C29.0274 4.28203 29.0383 4.26543 29.0603 4.23224C29.0109 4.21564 28.967 4.19351 28.9286 4.19351C28.7311 4.21011 28.5501 4.14925 28.391 4.0386C28.2154 3.92242 28.0453 3.80625 27.8753 3.68453C27.8478 3.66794 27.8149 3.64028 27.7985 3.60708C27.782 3.57389 27.7601 3.51856 27.7765 3.48537C27.7875 3.45771 27.8478 3.43558 27.8862 3.43558C27.9356 3.43558 27.9795 3.45771 28.0234 3.47431C28.188 3.54069 28.3471 3.60708 28.5062 3.67347C28.5336 3.68453 28.5775 3.66241 28.6049 3.65687C28.5994 3.62921 28.6049 3.59048 28.5885 3.56836C28.2922 3.1147 27.963 2.68871 27.4912 2.40657C27.365 2.32911 27.2608 2.21847 27.1675 2.11335C27.1182 2.0525 27.1072 1.95845 27.0907 1.87546C27.0798 1.84227 27.1072 1.77588 27.1291 1.77035C27.1621 1.76481 27.2114 1.78694 27.2443 1.80907C27.3925 1.93078 27.5351 2.05803 27.6832 2.17421C27.7326 2.21847 27.7985 2.25166 27.8588 2.28485C27.9356 2.32358 27.996 2.30145 27.9905 2.21293C27.9905 2.05803 27.985 1.89759 27.9576 1.74822C27.9192 1.46054 27.8478 1.17839 27.8204 0.890706C27.7985 0.658348 27.8204 0.42599 27.8259 0.188099C27.8259 0.16597 27.8259 0.138308 27.8423 0.121711C27.8808 0.0774527 27.9246 0.0387263 27.9685 0C27.985 0.049791 28.0179 0.099582 28.0234 0.149373C28.0399 0.320875 28.0453 0.492378 28.0563 0.658348C28.0618 0.686009 28.0783 0.708139 28.1167 0.741333C28.1496 0.641751 28.1825 0.542169 28.2154 0.442587C28.2428 0.359602 28.2593 0.265552 28.3032 0.188099C28.3197 0.154905 28.391 0.138308 28.4349 0.116179C28.4513 0.160438 28.4842 0.210229 28.4733 0.243423C28.4239 0.431522 28.3581 0.619621 28.3087 0.807721C28.2758 0.940497 28.2538 1.07881 28.2374 1.21711C28.2319 1.25031 28.2648 1.2835 28.2812 1.3167C28.3087 1.3001 28.3471 1.28903 28.3745 1.27244C28.5117 1.17285 28.6543 1.06221 28.8024 0.973691C28.8354 0.951561 28.9012 0.973691 28.9506 0.979223C28.9341 1.02901 28.9286 1.0954 28.8957 1.1286C28.7915 1.23924 28.6543 1.32776 28.5665 1.455C28.4952 1.55459 28.4458 1.69289 28.4239 1.82014C28.3745 2.10229 28.4184 2.3789 28.4897 2.66105C28.5556 2.9432 28.6598 3.21429 28.8244 3.45218C28.9835 3.68453 29.2029 3.83391 29.4663 3.91689C29.6583 3.97775 29.8503 4.0386 30.0533 4.06627C30.2508 4.09946 30.3057 4.01094 30.2398 3.82284C30.2014 3.6956 30.1411 3.57942 30.1027 3.45771C30.0807 3.38579 30.0643 3.31387 30.0752 3.24195C30.0807 3.19216 30.1301 3.12024 30.174 3.10917C30.2179 3.10364 30.2947 3.14237 30.3166 3.18662C30.366 3.26961 30.3825 3.38026 30.4319 3.46877C30.4977 3.59048 30.558 3.71773 30.6513 3.81178C30.8049 3.97222 30.9969 3.94455 31.189 3.8837C31.2274 3.8671 31.2658 3.84497 31.3096 3.82284C31.5456 3.70113 31.6224 3.53516 31.5401 3.27514C31.4687 3.04832 31.37 2.82702 31.2987 2.6002C31.2438 2.4121 31.1615 2.21847 31.2658 2.03037C31.2877 1.98611 31.3481 1.96398 31.3865 1.93632C31.4139 1.96951 31.4468 2.00824 31.4578 2.04696C31.5236 2.32358 31.6004 2.6002 31.776 2.83255C31.9022 2.99299 32.0887 3.01512 32.2533 2.89341C32.5386 2.67765 32.7745 2.4121 32.8074 2.0359C32.8293 1.82567 32.7964 1.60438 32.7525 1.39968C32.7196 1.24478 32.6318 1.10647 32.577 0.957094C32.5605 0.907303 32.577 0.840915 32.577 0.785591C32.6373 0.796656 32.7196 0.791124 32.7525 0.824318C32.8403 0.934964 32.9171 1.06221 32.9884 1.18392C33.0433 1.27244 33.0872 1.36649 33.142 1.44947C33.1914 1.52139 33.2463 1.49926 33.2627 1.42734C33.2957 1.29457 33.3176 1.15626 33.345 1.01795C33.378 0.807721 33.4164 0.603024 33.4493 0.392796C33.4602 0.315343 33.4548 0.23789 33.4657 0.154905C33.4767 0.127244 33.4987 0.099582 33.5151 0.0719203C33.548 0.0885173 33.6139 0.105114 33.6194 0.132776C33.6413 0.265552 33.6632 0.40386 33.6578 0.536636C33.6523 0.686009 33.6194 0.835382 33.6139 0.984755C33.773 0.90177 33.8498 0.768994 33.9101 0.619621C33.943 0.525572 33.9485 0.431522 33.9924 0.348537C34.0144 0.304278 34.0802 0.282149 34.1241 0.248955C34.146 0.293214 34.1954 0.343005 34.1844 0.376199C34.1405 0.558766 34.0967 0.741333 34.0198 0.907303C33.9211 1.14519 33.8059 1.38308 33.6687 1.60438C33.5151 1.86993 33.3341 2.11888 33.153 2.37337C32.9391 2.68871 32.7306 3.00406 32.4947 3.3028C32.1271 3.76752 31.6553 4.09393 31.1012 4.29862C31.0298 4.32628 30.9585 4.35395 30.8872 4.38714C30.8872 4.38714 30.8872 4.39267 30.8762 4.42587C31.0353 4.43693 31.1944 4.47013 31.3426 4.45353C31.5126 4.43693 31.6772 4.37608 31.8473 4.33735C31.8802 4.32628 31.9186 4.33182 31.946 4.34841C31.9625 4.35948 31.968 4.40927 31.9625 4.4314C31.8363 4.75227 31.6663 5.01783 31.3042 5.10634C31.1505 5.14507 31.0079 5.15614 30.8653 5.10081C30.7775 5.06762 30.7446 5.10081 30.7501 5.19486C30.7501 5.37743 30.761 5.57106 30.7446 5.75916C30.7062 6.14089 30.6458 6.52815 30.6074 6.90988C30.569 7.358 30.3934 7.78953 30.4319 8.24318C30.4648 8.61938 30.5964 8.95132 30.9421 9.13388C31.1121 9.2224 31.3042 9.28879 31.4907 9.30539C31.7431 9.33305 32.0064 9.33305 32.2588 9.30539C32.5495 9.27772 32.8348 9.21134 33.1201 9.15601C33.3889 9.11175 33.6632 9.03983 33.9321 9.02324C34.3874 8.99557 34.8483 8.97344 35.2981 9.01217C35.8522 9.0675 36.3789 9.23347 36.7849 9.64839C37.0153 9.88628 37.1799 10.1629 37.2457 10.4893C37.2622 10.5778 37.3006 10.6608 37.3116 10.7493C37.3171 10.7991 37.3006 10.8932 37.2732 10.8987C37.2183 10.9153 37.147 10.8932 37.0866 10.8766C37.0428 10.8655 37.0044 10.8268 36.9221 10.777C36.9221 10.9042 36.9221 10.9927 36.9221 11.0813C36.9275 11.4409 36.8507 11.7839 36.7739 12.1324C36.73 12.3205 36.7465 12.5252 36.7575 12.7188C36.7794 13.2333 36.966 13.6704 37.4049 13.9691C37.6298 14.124 37.8822 14.2126 38.1565 14.2513C38.2991 14.2679 38.4253 14.4007 38.4363 14.5611C38.4637 14.9594 38.4802 15.3578 38.524 15.7561C38.546 15.9663 38.6008 16.1655 38.6612 16.3646C38.7325 16.5915 38.8313 16.8072 38.9191 17.0285C38.9465 17.0949 38.9794 17.1613 39.0178 17.2222C39.1824 17.5043 39.122 17.6758 38.8916 17.8141C38.7215 17.9137 38.6941 18.0686 38.6831 18.2235C38.6667 18.4503 38.6722 18.6827 38.6777 18.915C38.6777 19.0202 38.6393 19.0644 38.5295 19.0644C38.2662 19.0589 38.0083 19.0644 37.745 19.0644C37.5859 19.0644 37.542 19.0036 37.6243 18.8653C37.745 18.655 37.8602 18.4393 38.0138 18.2622C38.2772 17.9746 38.3375 17.6481 38.3265 17.2775C38.3211 16.9677 38.2662 16.6634 38.1674 16.3702C38.0742 16.1046 38.0083 15.8335 37.8931 15.5791C37.7395 15.225 37.4817 14.9484 37.1305 14.7713C36.8727 14.6496 36.6093 14.5666 36.3241 14.5279C35.9455 14.4671 35.5779 14.3564 35.2927 14.0577C35.2817 14.0466 35.2652 14.0355 35.2488 14.0245C35.2378 14.0189 35.2213 14.0189 35.1994 14.0079Z" fill="#BF272F"/>
</svg>
