<svg width="70" height="98" viewBox="0 0 70 98" fill="none" xmlns="http://www.w3.org/2000/svg">
<g clip-path="url(#clip0_125_3558)">
<path fill-rule="evenodd" clip-rule="evenodd" d="M68.9637 33.4769L69.7266 32.6335V30.8684L69.1712 30.2961C68.6951 29.8082 68.2129 29.3202 67.7308 28.8383C66.6748 27.766 65.5823 26.6576 64.5264 25.5552C63.1531 24.1094 61.792 22.6576 60.4309 21.2058C59.7229 20.4528 59.021 19.6998 58.313 18.9467C58.1604 18.7841 57.9956 18.6395 57.8674 18.5251L57.2632 17.9648C57.1899 18.3986 57.0862 18.8202 56.9641 19.2419C57.1167 19.3925 57.3975 19.6998 57.5012 19.8142C58.2031 20.5552 58.8989 21.3022 59.5947 22.0492C60.968 23.513 62.3413 24.9769 63.7268 26.4226C64.7766 27.5311 65.8692 28.6335 66.9251 29.7058C67.4073 30.1998 67.8955 30.6877 68.3777 31.1817L68.573 31.3805V32.1455L68.097 32.6696C67.92 32.8624 67.7369 33.0612 67.5599 33.254C63.3972 37.9106 61.8591 43.5311 62.8479 50.4407C63.2141 52.9648 64.0686 55.501 64.8987 57.9467L65.1978 58.8323C65.3321 59.2359 65.4724 59.6395 65.6067 60.0491C66.6626 63.1154 67.7491 66.2961 67.8467 69.6696C68.0054 74.9287 66.4124 79.7238 63.1104 83.9166C60.2295 87.5853 56.897 89.7419 52.9236 90.519C51.477 90.8021 50 91.007 48.5717 91.2118C47.3754 91.3744 46.1364 91.5491 44.934 91.766C40.6066 92.5431 37.7502 94.0009 35.6811 96.4829L35.4674 96.7299H34.558L34.3505 96.4528C32.6842 94.1997 30.2245 92.8262 26.3793 92.007C24.6703 91.6395 22.888 91.3805 21.1668 91.1335C20.0194 90.9648 18.8292 90.7961 17.6634 90.5913C13.6473 89.8925 10.211 87.754 7.43997 84.2359C3.08815 78.7178 1.56226 72.754 2.89283 66.513C3.54591 63.4467 4.5652 60.4347 5.57229 57.6395C7.86112 51.2781 8.30057 46.272 7.00052 41.4166C5.99954 37.6757 4.34548 34.7961 1.93458 32.6154L1.71485 32.4106V31.3323L1.96509 31.1275C2.03223 31.0733 2.09327 31.0251 2.16041 30.9769C2.25806 30.9046 2.35572 30.8323 2.41676 30.766C3.5215 29.5853 4.62624 28.3986 5.72488 27.2178C6.89065 25.9648 8.05643 24.7178 9.22831 23.4648C10.1377 22.4949 11.0533 21.5251 11.9688 20.5612L13.2872 19.1636C13.3177 19.26 13.3482 19.3624 13.3848 19.4648C13.1895 18.8383 13.0369 18.1937 12.9454 17.5371L10.8946 19.6998C9.97904 20.6636 9.06351 21.6335 8.15409 22.6094C6.95779 23.8865 5.75539 25.1696 4.5652 26.4528C3.49708 27.5973 2.42896 28.7419 1.36084 29.8865C1.32422 29.9166 1.2876 29.9407 1.25098 29.9708C1.17774 30.0251 1.09839 30.0853 1.02515 30.1455L0.298828 30.7299V32.9648L0.9397 33.5492C3.15529 35.5612 4.69338 38.2419 5.62722 41.7419C6.86014 46.3383 6.43289 51.1094 4.22951 57.2178C3.21022 60.0552 2.17262 63.1154 1.50123 66.254C0.0913077 72.8744 1.70264 79.1877 6.29251 85.019C9.26493 88.7901 12.9698 91.0853 17.3094 91.8383C18.4935 92.0431 19.6898 92.2178 20.8433 92.3865C22.6256 92.6455 24.3041 92.8865 25.9764 93.2479C29.4982 94.0009 31.7138 95.2178 33.1847 97.1997L33.7768 98.0009H35.9496L36.5417 97.2901C38.4093 95.0491 41.0278 93.7299 45.0317 93.013C46.2097 92.8021 47.4365 92.6335 48.6206 92.4648C50.0671 92.266 51.5625 92.0552 53.0456 91.766C57.2754 90.9407 60.9619 88.5612 63.9954 84.6997C67.4866 80.266 69.1712 75.1937 69.0003 69.6275C68.8965 66.0732 67.7796 62.8022 66.6993 59.6395C66.5589 59.2359 65.9851 57.5431 65.9851 57.5431C65.1795 55.1455 64.3372 52.6696 63.9954 50.26C63.0615 43.7419 64.4959 38.4588 68.396 34.0973C68.5853 33.8865 68.7745 33.6817 68.9637 33.4769Z" fill="white"/>
<path fill-rule="evenodd" clip-rule="evenodd" d="M67.0296 31.7823C66.6634 31.4088 66.2972 31.0353 65.931 30.6618C64.8689 29.5895 63.7703 28.4751 62.7083 27.3606C61.3228 25.9088 59.9495 24.445 58.5762 22.9811C57.9048 22.2582 57.1052 21.4751 56.4277 20.7582C56.4277 20.7582 56.4277 20.7582 56.4277 20.7522C53.5774 27.4389 45.1301 32.2823 35.1447 32.2823C25.0433 32.2823 16.5106 27.3305 13.7579 20.5293C13.7945 20.6498 13.8006 20.716 13.7579 20.6799L12.9827 21.4992C12.0733 22.463 11.1578 23.4269 10.2483 24.3968C9.08255 25.6438 7.91677 26.8968 6.75099 28.1438C5.64625 29.3305 4.54151 30.5173 3.43677 31.698C3.36353 31.7763 3.28418 31.8486 3.21094 31.9088C5.64015 34.2341 7.31862 37.2341 8.35012 41.0654C9.72342 46.204 9.27176 51.457 6.88527 58.0956C5.8965 60.8486 4.88941 63.8064 4.25464 66.7944C3.00952 72.6197 4.44996 78.204 8.53933 83.3908C11.1272 86.6739 14.1912 88.5896 17.9083 89.2341C19.0496 89.4389 20.2276 89.6076 21.369 89.7703C23.1146 90.0233 24.9151 90.2883 26.6791 90.6618C29.3463 91.2341 32.6605 92.2522 35.0531 95.1016C37.995 91.9329 41.9257 90.9088 44.6845 90.4088C45.9174 90.192 47.1687 90.0173 48.3772 89.8486C49.7871 89.6498 51.2397 89.445 52.6497 89.1739C56.2813 88.463 59.3452 86.4691 62.0125 83.0775C65.107 79.1377 66.6024 74.6438 66.4559 69.704C66.3582 66.5414 65.3084 63.463 64.2891 60.4811C64.1548 60.0775 64.0145 59.6739 63.8741 59.2642L63.575 58.3787C62.7327 55.8727 61.8538 53.2763 61.4754 50.6317C60.4378 43.4028 62.1346 37.2522 66.5169 32.3486C66.6878 32.1558 66.8587 31.9691 67.0296 31.7823ZM53.9009 79.5233H40.2839L39.6125 77.6558L40.8942 77.3245C42.298 76.9269 43.2441 76.3968 43.7263 75.7341C44.2084 75.0775 44.4526 73.9088 44.4526 72.2221V61.198H26.2762V72.6076C26.2762 74.1799 26.5021 75.2763 26.9415 75.9028C27.3871 76.5233 28.2965 77.0353 29.6698 77.4329L30.8356 77.7642L30.2252 79.5233H16.6082L15.9429 77.6558L17.2186 77.3245C18.6285 76.9269 19.5684 76.3968 20.0506 75.7341C20.5328 75.0775 20.7769 73.9088 20.7769 72.2221V47.4329C20.7769 45.7522 20.5328 44.5775 20.0506 43.9209C19.5684 43.2642 18.6285 42.7341 17.2186 42.3305L15.9429 41.9992L16.6082 40.1377H28.7787L29.4989 41.0173L28.7787 41.9992C27.8509 43.21 27.204 44.4871 26.8317 45.8426C26.4593 47.198 26.2762 48.9691 26.2762 51.1618V57.8546H44.4526V47.4329C44.4526 45.7522 44.2084 44.5775 43.7263 43.9209C43.2441 43.2642 42.298 42.7341 40.8942 42.3305L39.6125 41.9992L40.2839 40.1377H52.4543L53.1746 41.0173L52.4543 41.9992C51.5266 43.21 50.8796 44.4871 50.5073 45.8426C50.135 47.198 49.9519 48.9691 49.9519 51.1618V72.6076C49.9519 74.1799 50.1716 75.2763 50.6172 75.9028C51.0627 76.5233 51.9722 77.0353 53.3394 77.4329L54.5112 77.7642L53.9009 79.5233Z" fill="white"/>
<path d="M44.506 6.62109H38.3597V7.71748H45.0186V21.7295H25.0051V7.71748H28.6184V6.62109H25.5178C24.4924 6.62109 23.6562 7.44037 23.6562 8.45844V21.344C23.6562 22.3862 24.5352 23.4404 25.5789 23.6452L32.5796 25.0307L30.834 25.6452C30.3091 25.8259 29.7903 26.0368 29.3814 26.2235H40.6424C40.2274 26.0368 39.7086 25.8259 39.1959 25.6452L37.4442 25.0307L44.4571 23.6452C45.4947 23.4404 46.3675 22.3862 46.3675 21.344V8.45844C46.3675 7.44037 45.5313 6.62109 44.506 6.62109Z" fill="white"/>
<path fill-rule="evenodd" clip-rule="evenodd" d="M39.4339 15.253C39.4034 15.5843 39.2752 15.8675 39.1409 16.1506C38.9822 16.4819 38.8174 16.8072 38.6893 17.1446C38.5977 17.3855 38.5367 17.6446 38.4878 17.8976C38.4329 18.2048 38.3902 18.512 38.3658 18.8193C38.3475 19.006 38.3719 19.1928 38.3841 19.3795C38.3902 19.5843 38.3047 19.6928 38.1277 19.7952C38.024 19.8554 37.9263 19.9639 37.8836 20.0783C37.8165 20.2289 37.7981 20.4036 37.7676 20.5723C37.7432 20.7289 37.7188 20.759 37.554 20.759C37.2793 20.759 36.9986 20.759 36.7239 20.759C36.5469 20.759 36.5103 20.7048 36.5896 20.5482C36.7544 20.2289 36.9864 19.9518 37.2916 19.753C37.4747 19.6325 37.5662 19.4518 37.6334 19.2711C37.7371 18.9578 37.8348 18.6446 37.8836 18.3193C37.969 17.759 38.0789 17.1867 37.9813 16.6205C37.9324 16.3434 37.7981 16.0783 37.6761 15.8193C37.4869 15.4277 37.1939 15.1024 36.9131 14.7771C36.73 14.5663 36.6324 14.3193 36.5774 14.0602C36.5652 13.988 36.5347 13.9639 36.4676 13.988C36.2906 14.0361 36.1136 14.0904 35.9366 14.1325C35.7596 14.1747 35.5826 14.2229 35.4056 14.2349C35.0516 14.253 34.6975 14.253 34.3374 14.253C34.252 14.253 34.2093 14.259 34.2154 14.3554C34.2398 14.6928 34.0994 14.988 33.9834 15.2952C33.9163 15.4639 33.9285 15.6566 33.9285 15.8373C33.9224 16.1566 33.9956 16.4578 34.075 16.7711C34.1055 16.8976 34.0506 17.0482 34.0201 17.1867C33.9773 17.3614 33.8858 17.5301 33.8736 17.7048C33.8614 18.0241 33.8797 18.3373 33.9102 18.6506C33.9346 18.9096 34.0323 19.1566 34.0567 19.4096C34.0689 19.5241 34.0078 19.6626 33.9468 19.7711C33.8369 19.9639 33.782 20.1626 33.7759 20.3795C33.7698 20.8012 33.8003 20.747 33.3914 20.753C33.2022 20.759 33.013 20.753 32.8238 20.747C32.6956 20.747 32.6712 20.7108 32.7139 20.5964C32.8116 20.2952 32.9519 20.012 33.2022 19.8072C33.4097 19.6325 33.4219 19.3976 33.4158 19.1747C33.4097 18.8012 33.3487 18.4277 33.2998 18.0602C33.2693 17.8193 33.2266 17.5783 33.1839 17.3373C33.1534 17.1988 33.135 17.0602 33.074 16.9398C32.9763 16.753 33.0008 16.5663 33.0191 16.3795C33.0435 16.1205 33.0313 15.8735 32.9397 15.6325C32.8787 15.4518 32.8177 15.2771 32.7444 15.0964C32.6101 14.747 32.3782 14.4518 32.1646 14.1446C32.0242 13.9458 31.8838 13.8675 31.6397 13.9458C31.5298 13.9759 31.4077 13.9578 31.2918 13.9458C30.9927 13.9036 30.6997 13.8735 30.4129 13.7952C30.1138 13.7169 29.8269 13.6024 29.5462 13.4819C29.302 13.3735 29.0518 13.3133 28.8015 13.3795C28.5696 13.4337 28.3804 13.5843 28.2522 13.7771C28.0813 14.0361 27.9348 14.3133 27.7944 14.5964C27.6968 14.7892 27.6113 14.994 27.5625 15.1988C27.5137 15.4036 27.5198 15.6145 27.5137 15.8253C27.5137 16 27.4771 16.1386 27.2817 16.1988C27.2451 16.2108 27.2146 16.2651 27.1963 16.3072C27.1841 16.3373 27.1902 16.3795 27.1963 16.4157C27.2634 16.8133 27.2634 16.7108 26.9583 16.9398C26.7568 17.0964 26.5432 17.241 26.3296 17.3855C26.293 17.4096 26.2319 17.4277 26.1953 17.4096C26.1648 17.3916 26.1465 17.3253 26.1465 17.2892C26.177 17.012 26.1709 16.7289 26.2502 16.4699C26.3296 16.2169 26.5005 15.994 26.6226 15.753C26.7324 15.5482 26.8423 15.3373 26.9399 15.1265C27.0559 14.8976 27.1597 14.6626 27.2573 14.4277C27.3428 14.241 27.4099 14.0482 27.4832 13.8614C27.6541 13.3916 27.8066 12.9157 28.2034 12.5783C28.4353 12.3795 28.7039 12.2892 29.009 12.2831C29.2593 12.2771 29.5156 12.2952 29.7659 12.259C30.0528 12.2108 30.3335 12.1205 30.5838 11.9699C30.657 11.9277 30.718 11.8735 30.6814 11.7711C30.541 11.4578 30.5044 11.1265 30.4983 10.7831C30.4922 10.4578 30.5105 10.1386 30.6204 9.83132C30.7791 9.36747 31.0232 8.93976 31.3589 8.56626C31.6397 8.24096 31.8716 7.88554 32.0364 7.48795C32.128 7.28313 32.2378 7.08434 32.3416 6.88554C32.3843 6.81325 32.3477 6.78313 32.2866 6.77711C32.0425 6.75904 31.8411 6.64458 31.6336 6.54819C31.5298 6.50602 31.3894 6.50602 31.2735 6.51807C31.0781 6.5241 30.9256 6.48795 30.8584 6.27711C30.8523 6.25904 30.834 6.24699 30.8279 6.23494C30.5899 6 30.6448 5.69879 30.9622 5.57229C31.1392 5.50602 31.3345 5.46988 31.5237 5.40361C31.7984 5.3012 32.0486 5.15663 32.2622 4.94578C32.3538 4.85542 32.4575 4.76506 32.5552 4.68072C32.5674 4.66265 32.5796 4.64458 32.604 4.60843C32.5491 4.59036 32.5003 4.56626 32.4575 4.56626C32.2378 4.58434 32.0364 4.51807 31.8594 4.39759C31.6641 4.27108 31.4749 4.14458 31.2857 4.01205C31.2552 3.99398 31.2185 3.96386 31.2002 3.92771C31.1819 3.89157 31.1575 3.83133 31.1758 3.79518C31.188 3.76506 31.2552 3.74096 31.2979 3.74096C31.3528 3.74096 31.4016 3.76506 31.4505 3.78313C31.6336 3.85542 31.8106 3.92771 31.9876 4C32.0181 4.01205 32.0669 3.98795 32.0974 3.98193C32.0913 3.95181 32.0974 3.90964 32.0791 3.88554C31.7495 3.39157 31.3833 2.92771 30.8584 2.62048C30.718 2.53614 30.6021 2.41566 30.4983 2.3012C30.4434 2.23494 30.4312 2.13253 30.4129 2.04217C30.4007 2.00602 30.4312 1.93373 30.4556 1.92771C30.4922 1.92169 30.5471 1.94578 30.5838 1.96988C30.7486 2.10241 30.9072 2.24096 31.072 2.36747C31.127 2.41566 31.2002 2.45181 31.2674 2.48795C31.3528 2.53012 31.4199 2.50602 31.4138 2.40964C31.4138 2.24096 31.4077 2.06626 31.3772 1.90361C31.3345 1.59036 31.2552 1.28313 31.2246 0.969879C31.2002 0.716867 31.2246 0.463855 31.2307 0.204819C31.2307 0.180723 31.2307 0.150602 31.249 0.13253C31.2918 0.0843373 31.3406 0.0421687 31.3894 0C31.4077 0.0542169 31.4444 0.108434 31.4505 0.162651C31.4688 0.349398 31.4749 0.536145 31.4871 0.716867C31.4932 0.746988 31.5115 0.771084 31.5542 0.807229C31.5908 0.698795 31.6275 0.590361 31.6641 0.481928C31.6946 0.391566 31.7129 0.289157 31.7617 0.204819C31.7801 0.168675 31.8594 0.150602 31.9082 0.126506C31.9265 0.174699 31.9632 0.228916 31.951 0.26506C31.896 0.469879 31.8228 0.674699 31.7678 0.879518C31.7312 1.0241 31.7068 1.1747 31.6885 1.3253C31.6824 1.36145 31.719 1.39759 31.7373 1.43373C31.7678 1.41566 31.8106 1.40361 31.8411 1.38554C31.9937 1.27711 32.1524 1.15663 32.3172 1.06024C32.3538 1.03614 32.427 1.06024 32.482 1.06626C32.4637 1.12048 32.4575 1.19277 32.4209 1.22892C32.305 1.3494 32.1524 1.44578 32.0547 1.58434C31.9754 1.69277 31.9204 1.84337 31.896 1.98193C31.8411 2.28916 31.8899 2.59036 31.9693 2.89759C32.0425 3.20482 32.1585 3.5 32.3416 3.75904C32.5186 4.01205 32.7627 4.1747 33.0557 4.26506C33.2693 4.33133 33.4829 4.39759 33.7088 4.42771C33.9285 4.46386 33.9895 4.36747 33.9163 4.16265C33.8736 4.0241 33.8064 3.89759 33.7637 3.76506C33.7393 3.68675 33.721 3.60843 33.7332 3.53012C33.7393 3.4759 33.7942 3.39759 33.8431 3.38554C33.8919 3.37952 33.9773 3.42169 34.0017 3.46988C34.0567 3.56024 34.075 3.68072 34.1299 3.77711C34.2032 3.90964 34.2703 4.04819 34.3741 4.1506C34.545 4.3253 34.7586 4.29518 34.9722 4.22892C35.0149 4.21084 35.0577 4.18675 35.1065 4.16265C35.3689 4.03012 35.4544 3.8494 35.3628 3.56626C35.2835 3.31928 35.1736 3.07831 35.0943 2.83133C35.0332 2.62651 34.9417 2.41566 35.0577 2.21084C35.0821 2.16265 35.1492 2.13855 35.1919 2.10843C35.2225 2.14458 35.2591 2.18675 35.2713 2.22892C35.3445 2.53012 35.43 2.83133 35.6253 3.08434C35.7657 3.25904 35.9732 3.28313 36.1563 3.1506C36.4737 2.91566 36.7361 2.62651 36.7728 2.21687C36.7972 1.98795 36.7605 1.74699 36.7117 1.5241C36.6751 1.35542 36.5774 1.20482 36.5164 1.04217C36.4981 0.987952 36.5164 0.915663 36.5164 0.855422C36.5835 0.86747 36.6751 0.861446 36.7117 0.89759C36.8094 1.01807 36.8948 1.15663 36.9742 1.28916C37.0352 1.38554 37.084 1.48795 37.1451 1.57831C37.2 1.65663 37.261 1.63253 37.2793 1.55422C37.316 1.40964 37.3404 1.25904 37.3709 1.10843C37.4075 0.879518 37.4502 0.656626 37.4869 0.427711C37.4991 0.343373 37.493 0.259036 37.5052 0.168675C37.5174 0.138554 37.5418 0.108434 37.5601 0.0783132C37.5967 0.0963855 37.67 0.114458 37.6761 0.144578C37.7005 0.289157 37.7249 0.439759 37.7188 0.584337C37.7127 0.746988 37.6761 0.909638 37.67 1.07229C37.847 0.981928 37.9324 0.837349 37.9996 0.674699C38.0362 0.572289 38.0423 0.469879 38.0911 0.379518C38.1155 0.331325 38.1888 0.307229 38.2376 0.271084C38.262 0.319277 38.3169 0.373494 38.3047 0.409639C38.2559 0.608434 38.2071 0.807229 38.1216 0.987952C38.0118 1.24699 37.8836 1.50602 37.731 1.74699C37.5601 2.03614 37.3587 2.30723 37.1573 2.58434C36.9192 2.92771 36.6873 3.27108 36.4249 3.59639C36.0159 4.10241 35.491 4.45783 34.8746 4.68072C34.7952 4.71084 34.7159 4.74096 34.6365 4.77711C34.6365 4.77711 34.6365 4.78313 34.6243 4.81928C34.8013 4.83133 34.9783 4.86747 35.1431 4.8494C35.3323 4.83133 35.5154 4.76506 35.7046 4.72289C35.7413 4.71084 35.784 4.71687 35.8145 4.73494C35.8328 4.74699 35.8389 4.8012 35.8328 4.8253C35.6924 5.1747 35.5032 5.46385 35.1004 5.56024C34.9295 5.60241 34.7708 5.61446 34.6121 5.55422C34.5144 5.51807 34.4778 5.55422 34.4839 5.65663C34.4839 5.85542 34.4961 6.06626 34.4778 6.27108C34.4351 6.68675 34.368 7.10843 34.3252 7.5241C34.2825 8.01205 34.0872 8.48193 34.1299 8.9759C34.1665 9.38554 34.313 9.74699 34.6975 9.94578C34.8868 10.0422 35.1004 10.1145 35.3079 10.1325C35.5887 10.1627 35.8816 10.1627 36.1624 10.1325C36.4859 10.1024 36.8033 10.0301 37.1207 9.96988C37.4197 9.92169 37.7249 9.84337 38.024 9.8253C38.5306 9.79518 39.0433 9.77108 39.5438 9.81325C40.1602 9.87349 40.7462 10.0542 41.1978 10.506C41.4542 10.7651 41.6373 11.0663 41.7105 11.4217C41.7288 11.5181 41.7716 11.6084 41.7838 11.7048C41.7899 11.759 41.7716 11.8614 41.741 11.8675C41.68 11.8855 41.6007 11.8614 41.5335 11.8434C41.4847 11.8313 41.442 11.7892 41.3504 11.7349C41.3504 11.8735 41.3504 11.9699 41.3504 12.0663C41.3565 12.4578 41.2711 12.8313 41.1856 13.2108C41.1368 13.4157 41.1551 13.6386 41.1673 13.8494C41.1917 14.4096 41.3992 14.8855 41.8875 15.2108C42.1378 15.3795 42.4185 15.4759 42.7237 15.5181C42.8824 15.5361 43.0228 15.6807 43.035 15.8554C43.0655 16.2892 43.0838 16.7229 43.1326 17.1566C43.1571 17.3855 43.2181 17.6024 43.2852 17.8193C43.3646 18.0663 43.4744 18.3012 43.5721 18.5422C43.6026 18.6145 43.6392 18.6867 43.682 18.753C43.8651 19.0602 43.7979 19.247 43.5416 19.3976C43.3524 19.506 43.3219 19.6747 43.3096 19.8434C43.2913 20.0904 43.2974 20.3434 43.3035 20.5964C43.3035 20.7108 43.2608 20.759 43.1388 20.759C42.8458 20.753 42.5589 20.759 42.2659 20.759C42.0889 20.759 42.0401 20.6928 42.1317 20.5422C42.2659 20.3133 42.3941 20.0783 42.565 19.8855C42.858 19.5723 42.9251 19.2169 42.9129 18.8133C42.9068 18.4759 42.8458 18.1446 42.7359 17.8253C42.6322 17.5361 42.5589 17.241 42.4307 16.9639C42.2598 16.5783 41.973 16.2771 41.5823 16.0843C41.2955 15.9518 41.0025 15.8614 40.6851 15.8193C40.264 15.753 39.855 15.6325 39.5377 15.3072C39.5255 15.2952 39.5071 15.2831 39.4888 15.2711C39.4766 15.2651 39.4583 15.2651 39.4339 15.253Z" fill="white"/>
</g>
<defs>
<clipPath id="clip0_125_3558">
<rect width="70" height="98" fill="white"/>
</clipPath>
</defs>
</svg>
