<svg width="175" height="90" viewBox="0 0 175 90" fill="none" xmlns="http://www.w3.org/2000/svg">
<g clip-path="url(#clip0_1_14)">
<path fill-rule="evenodd" clip-rule="evenodd" d="M61.7416 30.743L62.4274 29.9685V28.3475L61.9281 27.822C61.5002 27.3739 61.0668 26.9257 60.6334 26.4832C59.6842 25.4984 58.7022 24.4804 57.7531 23.468C56.5187 22.1403 55.2953 20.807 54.0718 19.4737C53.4354 18.7821 52.8045 18.0906 52.1681 17.3991C52.0309 17.2497 51.8828 17.1169 51.7676 17.0118L51.2245 16.4973C51.1586 16.8956 51.0654 17.2829 50.9556 17.6701C51.0928 17.8085 51.3452 18.0906 51.4384 18.1957C52.0694 18.8762 52.6948 19.5622 53.3202 20.2482C54.5546 21.5926 55.789 22.9369 57.0344 24.2647C57.978 25.2826 58.9601 26.2951 59.9092 27.2798C60.3426 27.7335 60.7815 28.1816 61.2149 28.6352L61.3905 28.8178V29.5204L60.9625 30.0017C60.8034 30.1787 60.6388 30.3613 60.4797 30.5384C56.7381 34.8148 55.3556 39.9765 56.2444 46.3221C56.5735 48.6401 57.3416 50.9693 58.0877 53.2154L58.3566 54.0286C58.4773 54.3993 58.6035 54.77 58.7241 55.1462C59.6733 57.9621 60.6498 60.8832 60.7376 63.9813C60.8802 68.811 59.4483 73.2148 56.4803 77.0653C53.8908 80.4345 50.8953 82.415 47.3238 83.1287C46.0235 83.3887 44.6959 83.5768 43.4121 83.7649C42.3368 83.9143 41.2231 84.0747 40.1423 84.2739C36.2525 84.9876 33.685 86.3264 31.8252 88.6057L31.6331 88.8326H30.8157L30.6292 88.5781C29.1314 86.509 26.9205 85.2476 23.4641 84.4952C21.928 84.1577 20.326 83.9198 18.7789 83.693C17.7475 83.5381 16.6777 83.3832 15.6298 83.1951C12.0199 82.5534 8.93112 80.5894 6.44037 77.3585C2.52869 72.2909 1.15713 66.8139 2.35313 61.0824C2.94016 58.2664 3.85636 55.5002 4.76159 52.9332C6.81892 47.0911 7.21393 42.4937 6.04537 38.0347C5.14562 34.5991 3.65886 31.9546 1.49179 29.9519L1.29429 29.7638V28.7735L1.51923 28.5854C1.57957 28.5356 1.63444 28.4914 1.69478 28.4471C1.78256 28.3807 1.87034 28.3144 1.92521 28.2535C2.91821 27.1692 3.91122 26.0793 4.89874 24.995C5.94661 23.8442 6.99448 22.699 8.04784 21.5483C8.86529 20.6576 9.68822 19.7669 10.5112 18.8817L11.6962 17.5982C11.7236 17.6867 11.751 17.7808 11.784 17.8748C11.6084 17.2995 11.4712 16.7075 11.389 16.1045L9.54558 18.0906C8.72265 18.9758 7.89971 19.8665 7.08226 20.7627C6.00696 21.9356 4.92617 23.114 3.85636 24.2923C2.89627 25.3435 1.93618 26.3946 0.976088 27.4458C0.943171 27.4734 0.910254 27.4956 0.877336 27.5232C0.811502 27.573 0.740181 27.6283 0.674346 27.6837L0.0214844 28.2203V30.2728L0.597539 30.8094C2.58904 32.6572 3.97157 35.1191 4.81096 38.3334C5.91918 42.5546 5.53515 46.9362 3.55462 52.546C2.63842 55.1517 1.70576 57.9621 1.10227 60.8445C-0.165047 66.9245 1.28332 72.7224 5.40896 78.0777C8.08076 81.5409 11.4109 83.6488 15.3116 84.3403C16.3759 84.5284 17.4512 84.6888 18.4881 84.8437C20.0901 85.0816 21.5988 85.3029 23.1021 85.6349C26.2676 86.3264 28.2591 87.4439 29.5813 89.2641L30.1135 89.9999H32.0666L32.5987 89.3471C34.2775 87.289 36.6311 86.0774 40.2301 85.4191C41.2889 85.2255 42.3916 85.0706 43.456 84.9157C44.7562 84.7331 46.1003 84.5395 47.4335 84.2739C51.2354 83.516 54.5491 81.3307 57.2758 77.7845C60.4139 73.7127 61.9281 69.0545 61.7745 63.9426C61.6812 60.6785 60.6772 57.6744 59.7062 54.77C59.58 54.3993 59.0643 52.8447 59.0643 52.8447C58.3401 50.6429 57.583 48.3691 57.2758 46.1561C56.4364 40.1701 57.7257 35.3183 61.2314 31.3129C61.4014 31.1192 61.5715 30.9311 61.7416 30.743Z" fill="#BF272F"/>
<path d="M74.9421 42.0127V45.1495H78.0253V42.0127H79.5669V49.769H78.0253V46.3722H74.9421V49.769H73.4004V42.0127H74.9421Z" fill="#BF272F"/>
<path d="M86.1291 49.769V43.9601H86.1182L83.1666 49.769H81.2793V42.0127H82.7606V47.8161H82.7825L85.7122 42.0127H87.6104V49.769H86.1291Z" fill="#BF272F"/>
<path d="M92.8655 46.1675H92.8435L90.6984 49.769H88.6795L91.3568 45.6696L88.8111 42.0127H90.7094L92.8655 45.3487V42.0127H94.4126V45.3487L96.5796 42.0127H98.4669L95.9213 45.6696L98.5986 49.769H96.5796L94.4455 46.1675H94.4126V49.769H92.8655V46.1675Z" fill="#BF272F"/>
<path d="M104.265 42.0127V43.2353H101.27V45.1495H104.013V46.3722H101.27V48.5464H104.298V49.769H99.7283V42.0127H104.265Z" fill="#BF272F"/>
<path d="M110.389 42.0127V43.2353H107.399V49.769H105.857V42.0127H110.389Z" fill="#BF272F"/>
<path d="M118.536 45.8687C118.536 48.2144 117.203 49.9073 114.767 49.9073C112.293 49.9073 110.998 48.2476 110.998 45.8687C110.998 43.4787 112.32 41.8799 114.767 41.8799C117.181 41.8799 118.536 43.5119 118.536 45.8687ZM116.934 45.8687C116.934 44.5022 116.298 43.1025 114.767 43.1025C113.231 43.1025 112.606 44.5022 112.606 45.8687C112.606 47.2684 113.187 48.6847 114.767 48.6847C116.353 48.6847 116.934 47.2684 116.934 45.8687Z" fill="#BF272F"/>
<path d="M122.118 42.0127C123.791 42.0127 125.327 42.5051 125.327 44.3584C125.327 46.1675 124.016 46.8258 122.359 46.8258H121.492V49.769H119.945V42.0127H122.118ZM122.249 45.5921C123.023 45.5921 123.714 45.3487 123.714 44.4469C123.714 43.5452 123.045 43.2353 122.249 43.2353H121.492V45.5921H122.249Z" fill="#BF272F"/>
<path d="M133.849 45.8687C133.849 48.2144 132.515 49.9073 130.08 49.9073C127.611 49.9073 126.311 48.2476 126.311 45.8687C126.311 43.4787 127.633 41.8799 130.08 41.8799C132.494 41.8799 133.849 43.5119 133.849 45.8687ZM132.252 45.8687C132.252 44.5022 131.61 43.1025 130.08 43.1025C128.549 43.1025 127.918 44.5022 127.918 45.8687C127.918 47.2684 128.505 48.6847 130.08 48.6847C131.665 48.6847 132.252 47.2684 132.252 45.8687Z" fill="#BF272F"/>
<path d="M135.944 51.1023H134.457V48.5464C135.132 48.5464 135.428 48.2255 135.428 47.1688V42.0127H140.497V48.5464H140.991V51.1023H139.515V49.769H135.944V51.1023ZM138.956 48.5464V43.2353H136.904V47.1688C136.904 48.2919 136.531 48.5464 136.531 48.5464H138.956Z" fill="#BF272F"/>
<path d="M146.055 49.9073C143.564 49.9073 141.836 48.6459 141.836 46.0236C141.836 43.3681 143.443 41.8799 146.055 41.8799C146.56 41.8799 147.234 41.9795 147.799 42.2008L147.684 43.5119C147.114 43.18 146.571 43.1025 146.022 43.1025C144.436 43.1025 143.443 44.3252 143.443 45.913C143.443 47.4952 144.414 48.6847 146.055 48.6847C146.669 48.6847 147.377 48.5463 147.739 48.3582L147.805 49.6583C147.245 49.7911 146.642 49.9073 146.055 49.9073Z" fill="#BF272F"/>
<path d="M150.487 42.0127V45.3487L153.263 42.0127H155.172L151.996 45.6696L155.293 49.769H153.274L150.509 46.1675H150.487V49.769H148.945V42.0127H150.487Z" fill="#BF272F"/>
<path d="M161.071 49.769V43.9601H161.06L158.108 49.769H156.221V42.0127H157.696V47.8161H157.718L160.654 42.0127H162.546V49.769H161.071Z" fill="#BF272F"/>
<path d="M169.031 49.7689V43.96H169.02L166.069 49.7689H164.182V42.0126H165.657V47.816H165.679L168.615 42.0126H170.507V49.7689H169.031ZM167.226 40.8453C167.808 40.8453 168.22 40.5244 168.357 39.9546H169.031C168.966 40.9559 168.22 41.6364 167.226 41.6364C166.244 41.6364 165.482 40.9559 165.438 39.9546H166.124C166.244 40.5244 166.639 40.8453 167.226 40.8453Z" fill="#BF272F"/>
<path d="M75.848 54.2612V55.0081H74.0041V59.0356H73.0547V54.2612H75.848Z" fill="#2B2A29"/>
<path d="M75.9453 54.2612H77.0206L78.2824 56.9223L79.3577 54.2612H80.3398L78.3318 59.0356H77.3443L77.8216 57.9402L75.9453 54.2612Z" fill="#2B2A29"/>
<path d="M82.5071 54.2612L83.6263 57.8794H83.6372L84.7729 54.2612H86.2871V59.0356H85.3819V55.0911H85.3654L84.0871 59.0356H83.1819L81.9036 55.0911L81.8871 55.1077V59.0356H80.9764V54.2612H82.5071Z" fill="#2B2A29"/>
<path d="M89.8208 54.2612L91.6807 59.0356H90.6273L90.2158 57.9402H88.2957L87.8842 59.0356H86.8967L88.7455 54.2612H89.8208ZM89.2557 55.2183L88.57 57.1878H89.9525L89.2667 55.2183H89.2557Z" fill="#2B2A29"/>
<path d="M93.2382 54.2612V56.1865H95.1419V54.2612H96.0911V59.0356H95.1419V56.9389H93.2382V59.0356H92.2891V54.2612H93.2382Z" fill="#2B2A29"/>
<path d="M100.129 59.0356V55.4562H100.124L98.3021 59.0356H97.1445V54.2612H98.0552V57.8296H98.0662L99.8712 54.2612H101.04V59.0356H100.129Z" fill="#2B2A29"/>
<path d="M101.6 55.0081V54.2612H105.264V55.0081H103.909V59.0356H102.955V55.0081H101.6Z" fill="#2B2A29"/>
<path d="M108.3 54.2612L110.159 59.0356H109.106L108.7 57.9402H106.78L106.363 59.0356H105.381L107.23 54.2612H108.3ZM107.734 55.2183L107.049 57.1878H108.437L107.751 55.2183H107.734Z" fill="#2B2A29"/>
<path d="M112.107 54.2612C113.138 54.2612 114.082 54.56 114.082 55.6996C114.082 56.8172 113.275 57.221 112.255 57.221H111.723V59.0356H110.773V54.2612H112.107ZM112.189 56.4631C112.666 56.4631 113.094 56.3137 113.094 55.7605C113.094 55.2017 112.677 55.0081 112.189 55.0081H111.723V56.4631H112.189Z" fill="#2B2A29"/>
<path d="M115.869 54.2612V56.1865H117.767V54.2612H118.722V59.0356H117.767V56.9389H115.869V59.0356H114.92V54.2612H115.869Z" fill="#2B2A29"/>
<path d="M124.237 56.6347C124.237 58.0787 123.414 59.1188 121.911 59.1188C120.391 59.1188 119.59 58.1008 119.59 56.6347C119.59 55.1631 120.407 54.1729 121.911 54.1729C123.397 54.1729 124.237 55.1797 124.237 56.6347ZM123.249 56.6347C123.249 55.7938 122.854 54.9308 121.911 54.9308C120.967 54.9308 120.583 55.7938 120.583 56.6347C120.583 57.4978 120.939 58.3664 121.911 58.3664C122.887 58.3664 123.249 57.4978 123.249 56.6347Z" fill="#2B2A29"/>
<path d="M124.789 57.5698V56.8174H126.578V57.5698H124.789Z" fill="#2B2A29"/>
<path d="M126.869 55.0081V54.2612H130.534V55.0081H129.173V59.0356H128.224V55.0081H126.869Z" fill="#2B2A29"/>
<path d="M133.936 54.2612V55.0081H132.086V56.1865H133.782V56.9389H132.086V58.2832H133.958V59.0356H131.137V54.2612H133.936Z" fill="#2B2A29"/>
<path d="M134.571 54.2612H135.673L136.661 55.9652L137.676 54.2612H138.696L137.27 56.5516L138.823 59.0356H137.709L136.612 57.1768L135.503 59.0356H134.434L135.986 56.5516L134.571 54.2612Z" fill="#2B2A29"/>
<path d="M140.393 54.2612V56.1865H142.296V54.2612H143.246V59.0356H142.296V56.9389H140.393V59.0356H139.444V54.2612H140.393Z" fill="#2B2A29"/>
<path d="M147.283 59.0356V55.4562H147.278L145.456 59.0356H144.299V54.2612H145.204V57.8296H145.22L147.025 54.2612H148.194V59.0356H147.283Z" fill="#2B2A29"/>
<path d="M150.004 54.2612V55.7605C150.004 56.2584 150.289 56.524 150.75 56.524C151.128 56.524 151.469 56.3635 151.721 56.1754V54.2612H152.676V59.0356H151.721V56.9555C151.364 57.1657 150.882 57.3261 150.432 57.3261C149.653 57.3261 149.055 56.8614 149.055 55.8379V54.2612H150.004Z" fill="#2B2A29"/>
<path d="M156.572 54.2612V55.0081H154.723V56.1865H156.419V56.9389H154.723V58.2832H156.594V59.0356H153.774V54.2612H156.572Z" fill="#2B2A29"/>
<path d="M159.919 59.1188C158.388 59.1188 157.318 58.3442 157.318 56.7288C157.318 55.0912 158.311 54.1729 159.919 54.1729C160.232 54.1729 160.643 54.2392 160.994 54.372L160.923 55.1797C160.572 54.975 160.237 54.9308 159.902 54.9308C158.92 54.9308 158.311 55.6832 158.311 56.6624C158.311 57.6361 158.909 58.3664 159.919 58.3664C160.297 58.3664 160.736 58.2834 160.956 58.1672L161 58.9694C160.654 59.0524 160.281 59.1188 159.919 59.1188Z" fill="#2B2A29"/>
<path d="M162.65 54.2612V56.3137L164.356 54.2612H165.536L163.577 56.5074L165.607 59.0356H164.367L162.661 56.8172H162.65V59.0356H161.695V54.2612H162.65Z" fill="#2B2A29"/>
<path d="M169.168 59.0356V55.4562H169.157L167.341 59.0356H166.178V54.2612H167.088V57.8296H167.105L168.91 54.2612H170.078V59.0356H169.168Z" fill="#2B2A29"/>
<path d="M174.067 59.0356V55.4562H174.061L172.24 59.0356H171.082V54.2612H171.987V57.8296H172.004L173.809 54.2612H174.977V59.0356H174.067ZM172.953 53.542C173.315 53.542 173.567 53.3373 173.655 52.9888H174.067C174.028 53.6084 173.567 54.0233 172.953 54.0233C172.349 54.0233 171.883 53.6084 171.856 52.9888H172.273C172.349 53.3373 172.596 53.542 172.953 53.542Z" fill="#2B2A29"/>
<path d="M74.0038 63.5225V65.575L75.7155 63.5225H76.8895L74.9364 65.7741L76.9664 68.3024H75.721L74.0202 66.0839H74.0038V68.3024H73.0547V63.5225H74.0038Z" fill="#2B2A29"/>
<path d="M81.9964 65.9013C81.9964 67.3453 81.1735 68.3854 79.6758 68.3854C78.1506 68.3854 77.3496 67.3619 77.3496 65.9013C77.3496 64.4242 78.1671 63.4395 79.6758 63.4395C81.1625 63.4395 81.9964 64.4463 81.9964 65.9013ZM81.0144 65.9013C81.0144 65.0549 80.6194 64.1919 79.6758 64.1919C78.7321 64.1919 78.3426 65.0549 78.3426 65.9013C78.3426 66.7589 78.7047 67.633 79.6758 67.633C80.6523 67.633 81.0144 66.7589 81.0144 65.9013Z" fill="#2B2A29"/>
<path d="M86.0893 63.5225V68.3024H85.1401V64.2749H83.8783V67.0963C83.8783 67.6053 83.5491 68.3854 82.5781 68.3854L82.3477 67.55C82.9676 67.55 82.9676 67.0466 82.9676 66.7036V63.5225H86.0893Z" fill="#2B2A29"/>
<path d="M90.3705 63.5225V68.3024H89.4159V64.2749H88.1541V67.0963C88.1541 67.6053 87.8304 68.3854 86.8593 68.3854L86.6289 67.55C87.2434 67.55 87.2434 67.0466 87.2434 66.7036V63.5225H90.3705Z" fill="#2B2A29"/>
<path d="M94.2152 63.5225V64.2749H92.3713V65.4532H94.0616V66.2056H92.3713V67.55H94.2372V68.3024H91.4219V63.5225H94.2152Z" fill="#2B2A29"/>
<path d="M95.6135 69.1212H94.6973V67.55C95.1142 67.55 95.2953 67.3508 95.2953 66.698V63.5225H98.4224V67.55H98.7242V69.1212H97.8134V68.3024H95.6135V69.1212ZM97.4678 67.55V64.2749H96.206V66.698C96.206 67.3896 95.9756 67.55 95.9756 67.55H97.4678Z" fill="#2B2A29"/>
<path d="M101.661 66.0839H101.644L100.322 68.3024H99.082L100.728 65.7741L99.1588 63.5225H100.327L101.661 65.575V63.5225H102.61V65.575L103.948 63.5225H105.111L103.542 65.7741L105.188 68.3024H103.948L102.632 66.0839H102.61V68.3024H101.661V66.0839Z" fill="#2B2A29"/>
<path fill-rule="evenodd" clip-rule="evenodd" d="M60.0027 29.1884C59.6735 28.8454 59.3444 28.5024 59.0152 28.1594C58.0606 27.1746 57.0731 26.1512 56.1185 25.1277C54.8731 23.7944 53.6387 22.45 52.4043 21.1057C51.8008 20.4418 51.0821 19.7226 50.4731 19.0642C50.4731 19.0642 50.4731 19.0642 50.4731 19.0587C47.9111 25.1996 40.3181 29.6476 31.3426 29.6476C22.2629 29.6476 14.5932 25.1 12.1189 18.854C12.1518 18.9647 12.1573 19.0255 12.1189 18.9923L11.4221 19.7447C10.6047 20.6299 9.78175 21.5151 8.9643 22.4058C7.91643 23.551 6.86856 24.7017 5.82069 25.8469C4.82768 26.9367 3.83467 28.0266 2.84166 29.111C2.77583 29.1829 2.70451 29.2493 2.63867 29.3046C4.82219 31.4401 6.33091 34.1952 7.25808 37.7137C8.49248 42.4328 8.0865 47.257 5.94138 53.3536C5.05261 55.8819 4.14739 58.5983 3.57682 61.3423C2.45763 66.6921 3.75238 71.8206 7.42815 76.5839C9.75431 79.599 12.5084 81.3583 15.8495 81.9503C16.8754 82.1384 17.9343 82.2933 18.9602 82.4426C20.5293 82.675 22.1477 82.9184 23.7332 83.2614C26.1307 83.787 29.1097 84.722 31.2603 87.3388C33.9047 84.4288 37.4378 83.4883 39.9176 83.0291C41.0258 82.8299 42.1505 82.6695 43.2368 82.5146C44.5041 82.332 45.8098 82.1439 47.0772 81.8949C50.3415 81.2421 53.0955 79.4109 55.493 76.2962C58.2746 72.6781 59.6187 68.551 59.487 64.0144C59.3992 61.11 58.4556 58.2829 57.5394 55.5444C57.4187 55.1738 57.2925 54.8031 57.1663 54.4269L56.8975 53.6137C56.1404 51.3122 55.3504 48.9278 55.0102 46.4991C54.0776 39.8603 55.6028 34.2118 59.5419 29.7084C59.6955 29.5314 59.8491 29.3599 60.0027 29.1884ZM48.2018 73.0321H35.962L35.3586 71.3171L36.5107 71.0128C37.7725 70.6477 38.6229 70.1609 39.0563 69.5523C39.4897 68.9493 39.7091 67.876 39.7091 66.327V56.2028H23.3711V66.681C23.3711 68.125 23.5741 69.1319 23.9691 69.7072C24.3696 70.277 25.1871 70.7473 26.4215 71.1124L27.4694 71.4167L26.9207 73.0321H14.681L14.083 71.3171L15.2296 71.0128C16.4969 70.6477 17.3418 70.1609 17.7752 69.5523C18.2086 68.9493 18.428 67.876 18.428 66.327V43.5614C18.428 42.0179 18.2086 40.9391 17.7752 40.3361C17.3418 39.733 16.4969 39.2462 15.2296 38.8755L14.083 38.5712L14.681 36.8617H25.6205L26.2679 37.6695L25.6205 38.5712C24.7866 39.6832 24.205 40.8561 23.8704 42.1009C23.5357 43.3456 23.3711 44.9722 23.3711 46.9859V53.1323H39.7091V43.5614C39.7091 42.0179 39.4897 40.9391 39.0563 40.3361C38.6229 39.733 37.7725 39.2462 36.5107 38.8755L35.3586 38.5712L35.962 36.8617H46.9016L47.549 37.6695L46.9016 38.5712C46.0677 39.6832 45.4861 40.8561 45.1515 42.1009C44.8168 43.3456 44.6522 44.9722 44.6522 46.9859V66.681C44.6522 68.125 44.8497 69.1319 45.2502 69.7072C45.6507 70.277 46.4682 70.7473 47.6971 71.1124L48.7505 71.4167L48.2018 73.0321Z" fill="#BF272F"/>
<path d="M39.7585 6.08008H34.2339V7.08696H40.2194V19.9552H22.23V7.08696H25.4779V6.08008H22.6909C21.7692 6.08008 21.0176 6.83248 21.0176 7.76744V19.6011C21.0176 20.5582 21.8076 21.5264 22.7457 21.7145L29.0384 22.9869L27.4694 23.5512C26.9976 23.7172 26.5312 23.9108 26.1637 24.0823H36.2858C35.9127 23.9108 35.4464 23.7172 34.9855 23.5512L33.411 22.9869L39.7146 21.7145C40.6473 21.5264 41.4318 20.5582 41.4318 19.6011V7.76744C41.4318 6.83248 40.6802 6.08008 39.7585 6.08008Z" fill="#BF272F"/>
<path fill-rule="evenodd" clip-rule="evenodd" d="M35.1994 14.0079C35.172 14.3121 35.0567 14.5722 34.936 14.8322C34.7934 15.1365 34.6453 15.4352 34.5301 15.745C34.4478 15.9663 34.3929 16.2042 34.349 16.4366C34.2996 16.7187 34.2612 17.0009 34.2393 17.283C34.2228 17.4545 34.2448 17.626 34.2558 17.7975C34.2612 17.9856 34.1844 18.0852 34.0253 18.1792C33.9321 18.2346 33.8443 18.3342 33.8059 18.4393C33.7455 18.5776 33.7291 18.738 33.7016 18.8929C33.6797 19.0368 33.6578 19.0644 33.5096 19.0644C33.2627 19.0644 33.0104 19.0644 32.7635 19.0644C32.6044 19.0644 32.5715 19.0146 32.6428 18.8708C32.7909 18.5776 32.9994 18.3231 33.2737 18.1405C33.4383 18.0299 33.5206 17.8639 33.5809 17.6979C33.6742 17.4103 33.762 17.1226 33.8059 16.8238C33.8827 16.3093 33.9814 15.7837 33.8937 15.2637C33.8498 15.0092 33.7291 14.7658 33.6194 14.5279C33.4493 14.1683 33.1859 13.8696 32.9336 13.5708C32.769 13.3772 32.6812 13.1504 32.6318 12.9125C32.6209 12.8461 32.5934 12.8239 32.5331 12.8461C32.374 12.8903 32.2149 12.9401 32.0558 12.9789C31.8967 13.0176 31.7376 13.0618 31.5785 13.0729C31.2603 13.0895 30.9421 13.0895 30.6184 13.0895C30.5416 13.0895 30.5032 13.095 30.5087 13.1836C30.5306 13.4934 30.4044 13.7644 30.3002 14.0466C30.2398 14.2015 30.2508 14.3785 30.2508 14.5445C30.2453 14.8377 30.3112 15.1143 30.3825 15.402C30.4099 15.5182 30.3605 15.6565 30.3331 15.7837C30.2947 15.9442 30.2124 16.0991 30.2014 16.2595C30.1905 16.5527 30.2069 16.8404 30.2343 17.1281C30.2563 17.366 30.3441 17.5928 30.366 17.8252C30.377 17.9303 30.3221 18.0575 30.2673 18.1571C30.1685 18.3342 30.1191 18.5167 30.1136 18.7159C30.1082 19.1031 30.1356 19.0534 29.768 19.0589C29.5979 19.0644 29.4279 19.0589 29.2578 19.0534C29.1426 19.0534 29.1206 19.0202 29.159 18.915C29.2468 18.6384 29.373 18.3784 29.5979 18.1903C29.7845 18.0299 29.7954 17.8141 29.79 17.6094C29.7845 17.2664 29.7296 16.9234 29.6857 16.5859C29.6583 16.3646 29.6199 16.1434 29.5815 15.9221C29.5541 15.7948 29.5376 15.6676 29.4827 15.5569C29.395 15.3854 29.4169 15.2139 29.4334 15.0424C29.4553 14.8045 29.4443 14.5777 29.362 14.3564C29.3072 14.1904 29.2523 14.03 29.1865 13.864C29.0658 13.5432 28.8573 13.2721 28.6653 12.9899C28.5391 12.8074 28.4129 12.7354 28.1935 12.8074C28.0947 12.835 27.985 12.8184 27.8808 12.8074C27.6119 12.7686 27.3486 12.741 27.0907 12.669C26.8219 12.5971 26.5641 12.492 26.3117 12.3814C26.0922 12.2818 25.8673 12.2265 25.6424 12.2873C25.4339 12.3371 25.2638 12.4754 25.1486 12.6524C24.995 12.8903 24.8633 13.1448 24.7371 13.4048C24.6494 13.5819 24.5726 13.77 24.5287 13.9581C24.4848 14.1462 24.4903 14.3398 24.4848 14.5334C24.4848 14.6939 24.4519 14.8211 24.2763 14.8764C24.2434 14.8875 24.2159 14.9373 24.1995 14.976C24.1885 15.0037 24.194 15.0424 24.1995 15.0756C24.2598 15.4407 24.2598 15.3467 23.9855 15.5569C23.8045 15.7008 23.6125 15.8335 23.4204 15.9663C23.3875 15.9884 23.3327 16.005 23.2997 15.9884C23.2723 15.9718 23.2559 15.911 23.2559 15.8778C23.2833 15.6233 23.2778 15.3633 23.3491 15.1254C23.4204 14.893 23.5741 14.6883 23.6838 14.4671C23.7825 14.279 23.8813 14.0853 23.9691 13.8917C24.0733 13.6815 24.1666 13.4657 24.2544 13.2499C24.3312 13.0784 24.3915 12.9014 24.4573 12.7299C24.611 12.2984 24.7481 11.8613 25.1047 11.5515C25.3132 11.3689 25.5546 11.286 25.8289 11.2804C26.0538 11.2749 26.2843 11.2915 26.5092 11.2583C26.767 11.214 27.0194 11.1311 27.2443 10.9927C27.3102 10.954 27.365 10.9042 27.3321 10.8102C27.2059 10.5225 27.173 10.2182 27.1675 9.90288C27.1621 9.60413 27.1785 9.31092 27.2773 9.02877C27.4199 8.60278 27.6394 8.20998 27.9411 7.86698C28.1935 7.56823 28.4019 7.24183 28.5501 6.87669C28.6324 6.68859 28.7311 6.50602 28.8244 6.32346C28.8628 6.25707 28.8299 6.22941 28.775 6.22388C28.5556 6.20728 28.3745 6.10216 28.188 6.01365C28.0947 5.97492 27.9685 5.97492 27.8643 5.98599C27.6887 5.99152 27.5516 5.95832 27.4912 5.76469C27.4857 5.74809 27.4693 5.73703 27.4638 5.72597C27.2498 5.5102 27.2992 5.23359 27.5845 5.11741C27.7436 5.05655 27.9192 5.02336 28.0892 4.9625C28.3361 4.86845 28.561 4.73568 28.7531 4.54205C28.8354 4.45906 28.9286 4.37608 29.0164 4.29862C29.0274 4.28203 29.0383 4.26543 29.0603 4.23224C29.0109 4.21564 28.967 4.19351 28.9286 4.19351C28.7311 4.21011 28.5501 4.14925 28.391 4.0386C28.2154 3.92242 28.0453 3.80625 27.8753 3.68453C27.8478 3.66794 27.8149 3.64028 27.7985 3.60708C27.782 3.57389 27.7601 3.51856 27.7765 3.48537C27.7875 3.45771 27.8478 3.43558 27.8862 3.43558C27.9356 3.43558 27.9795 3.45771 28.0234 3.47431C28.188 3.54069 28.3471 3.60708 28.5062 3.67347C28.5336 3.68453 28.5775 3.66241 28.6049 3.65687C28.5994 3.62921 28.6049 3.59048 28.5885 3.56836C28.2922 3.1147 27.963 2.68871 27.4912 2.40657C27.365 2.32911 27.2608 2.21847 27.1675 2.11335C27.1182 2.0525 27.1072 1.95845 27.0907 1.87546C27.0798 1.84227 27.1072 1.77588 27.1291 1.77035C27.1621 1.76481 27.2114 1.78694 27.2443 1.80907C27.3925 1.93078 27.5351 2.05803 27.6832 2.17421C27.7326 2.21847 27.7985 2.25166 27.8588 2.28485C27.9356 2.32358 27.996 2.30145 27.9905 2.21293C27.9905 2.05803 27.985 1.89759 27.9576 1.74822C27.9192 1.46054 27.8478 1.17839 27.8204 0.890706C27.7985 0.658348 27.8204 0.42599 27.8259 0.188099C27.8259 0.16597 27.8259 0.138308 27.8423 0.121711C27.8808 0.0774527 27.9246 0.0387263 27.9685 0C27.985 0.049791 28.0179 0.099582 28.0234 0.149373C28.0399 0.320875 28.0453 0.492378 28.0563 0.658348C28.0618 0.686009 28.0783 0.708139 28.1167 0.741333C28.1496 0.641751 28.1825 0.542169 28.2154 0.442587C28.2428 0.359602 28.2593 0.265552 28.3032 0.188099C28.3197 0.154905 28.391 0.138308 28.4349 0.116179C28.4513 0.160438 28.4842 0.210229 28.4733 0.243423C28.4239 0.431522 28.3581 0.619621 28.3087 0.807721C28.2758 0.940497 28.2538 1.07881 28.2374 1.21711C28.2319 1.25031 28.2648 1.2835 28.2812 1.3167C28.3087 1.3001 28.3471 1.28903 28.3745 1.27244C28.5117 1.17285 28.6543 1.06221 28.8024 0.973691C28.8354 0.951561 28.9012 0.973691 28.9506 0.979223C28.9341 1.02901 28.9286 1.0954 28.8957 1.1286C28.7915 1.23924 28.6543 1.32776 28.5665 1.455C28.4952 1.55459 28.4458 1.69289 28.4239 1.82014C28.3745 2.10229 28.4184 2.3789 28.4897 2.66105C28.5556 2.9432 28.6598 3.21429 28.8244 3.45218C28.9835 3.68453 29.2029 3.83391 29.4663 3.91689C29.6583 3.97775 29.8503 4.0386 30.0533 4.06627C30.2508 4.09946 30.3057 4.01094 30.2398 3.82284C30.2014 3.6956 30.1411 3.57942 30.1027 3.45771C30.0807 3.38579 30.0643 3.31387 30.0752 3.24195C30.0807 3.19216 30.1301 3.12024 30.174 3.10917C30.2179 3.10364 30.2947 3.14237 30.3166 3.18662C30.366 3.26961 30.3825 3.38026 30.4319 3.46877C30.4977 3.59048 30.558 3.71773 30.6513 3.81178C30.8049 3.97222 30.9969 3.94455 31.189 3.8837C31.2274 3.8671 31.2658 3.84497 31.3096 3.82284C31.5456 3.70113 31.6224 3.53516 31.5401 3.27514C31.4687 3.04832 31.37 2.82702 31.2987 2.6002C31.2438 2.4121 31.1615 2.21847 31.2658 2.03037C31.2877 1.98611 31.3481 1.96398 31.3865 1.93632C31.4139 1.96951 31.4468 2.00824 31.4578 2.04696C31.5236 2.32358 31.6004 2.6002 31.776 2.83255C31.9022 2.99299 32.0887 3.01512 32.2533 2.89341C32.5386 2.67765 32.7745 2.4121 32.8074 2.0359C32.8293 1.82567 32.7964 1.60438 32.7525 1.39968C32.7196 1.24478 32.6318 1.10647 32.577 0.957094C32.5605 0.907303 32.577 0.840915 32.577 0.785591C32.6373 0.796656 32.7196 0.791124 32.7525 0.824318C32.8403 0.934964 32.9171 1.06221 32.9884 1.18392C33.0433 1.27244 33.0872 1.36649 33.142 1.44947C33.1914 1.52139 33.2463 1.49926 33.2627 1.42734C33.2957 1.29457 33.3176 1.15626 33.345 1.01795C33.378 0.807721 33.4164 0.603024 33.4493 0.392796C33.4602 0.315343 33.4548 0.23789 33.4657 0.154905C33.4767 0.127244 33.4987 0.099582 33.5151 0.0719203C33.548 0.0885173 33.6139 0.105114 33.6194 0.132776C33.6413 0.265552 33.6632 0.40386 33.6578 0.536636C33.6523 0.686009 33.6194 0.835382 33.6139 0.984755C33.773 0.90177 33.8498 0.768994 33.9101 0.619621C33.943 0.525572 33.9485 0.431522 33.9924 0.348537C34.0144 0.304278 34.0802 0.282149 34.1241 0.248955C34.146 0.293214 34.1954 0.343005 34.1844 0.376199C34.1405 0.558766 34.0967 0.741333 34.0198 0.907303C33.9211 1.14519 33.8059 1.38308 33.6687 1.60438C33.5151 1.86993 33.3341 2.11888 33.153 2.37337C32.9391 2.68871 32.7306 3.00406 32.4947 3.3028C32.1271 3.76752 31.6553 4.09393 31.1012 4.29862C31.0298 4.32628 30.9585 4.35395 30.8872 4.38714C30.8872 4.38714 30.8872 4.39267 30.8762 4.42587C31.0353 4.43693 31.1944 4.47013 31.3426 4.45353C31.5126 4.43693 31.6772 4.37608 31.8473 4.33735C31.8802 4.32628 31.9186 4.33182 31.946 4.34841C31.9625 4.35948 31.968 4.40927 31.9625 4.4314C31.8363 4.75227 31.6663 5.01783 31.3042 5.10634C31.1505 5.14507 31.0079 5.15614 30.8653 5.10081C30.7775 5.06762 30.7446 5.10081 30.7501 5.19486C30.7501 5.37743 30.761 5.57106 30.7446 5.75916C30.7062 6.14089 30.6458 6.52815 30.6074 6.90988C30.569 7.358 30.3934 7.78953 30.4319 8.24318C30.4648 8.61938 30.5964 8.95132 30.9421 9.13388C31.1121 9.2224 31.3042 9.28879 31.4907 9.30539C31.7431 9.33305 32.0064 9.33305 32.2588 9.30539C32.5495 9.27772 32.8348 9.21134 33.1201 9.15601C33.3889 9.11175 33.6632 9.03983 33.9321 9.02324C34.3874 8.99557 34.8483 8.97344 35.2981 9.01217C35.8522 9.0675 36.3789 9.23347 36.7849 9.64839C37.0153 9.88628 37.1799 10.1629 37.2457 10.4893C37.2622 10.5778 37.3006 10.6608 37.3116 10.7493C37.3171 10.7991 37.3006 10.8932 37.2732 10.8987C37.2183 10.9153 37.147 10.8932 37.0866 10.8766C37.0428 10.8655 37.0044 10.8268 36.9221 10.777C36.9221 10.9042 36.9221 10.9927 36.9221 11.0813C36.9275 11.4409 36.8507 11.7839 36.7739 12.1324C36.73 12.3205 36.7465 12.5252 36.7575 12.7188C36.7794 13.2333 36.966 13.6704 37.4049 13.9691C37.6298 14.124 37.8822 14.2126 38.1565 14.2513C38.2991 14.2679 38.4253 14.4007 38.4363 14.5611C38.4637 14.9594 38.4802 15.3578 38.524 15.7561C38.546 15.9663 38.6008 16.1655 38.6612 16.3646C38.7325 16.5915 38.8313 16.8072 38.9191 17.0285C38.9465 17.0949 38.9794 17.1613 39.0178 17.2222C39.1824 17.5043 39.122 17.6758 38.8916 17.8141C38.7215 17.9137 38.6941 18.0686 38.6831 18.2235C38.6667 18.4503 38.6722 18.6827 38.6777 18.915C38.6777 19.0202 38.6393 19.0644 38.5295 19.0644C38.2662 19.0589 38.0083 19.0644 37.745 19.0644C37.5859 19.0644 37.542 19.0036 37.6243 18.8653C37.745 18.655 37.8602 18.4393 38.0138 18.2622C38.2772 17.9746 38.3375 17.6481 38.3265 17.2775C38.3211 16.9677 38.2662 16.6634 38.1674 16.3702C38.0742 16.1046 38.0083 15.8335 37.8931 15.5791C37.7395 15.225 37.4817 14.9484 37.1305 14.7713C36.8727 14.6496 36.6093 14.5666 36.3241 14.5279C35.9455 14.4671 35.5779 14.3564 35.2927 14.0577C35.2817 14.0466 35.2652 14.0355 35.2488 14.0245C35.2378 14.0189 35.2213 14.0189 35.1994 14.0079Z" fill="#BF272F"/>
</g>
<defs>
<clipPath id="clip0_1_14">
<rect width="175" height="90" fill="white"/>
</clipPath>
</defs>
</svg>
