<svg width="100" height="140" viewBox="0 0 100 140" fill="none" xmlns="http://www.w3.org/2000/svg">
<g clip-path="url(#clip0_35_371)">
<path fill-rule="evenodd" clip-rule="evenodd" d="M98.5184 47.8228L99.6083 46.618V44.0965L98.8149 43.2789C98.1348 42.5819 97.4459 41.8848 96.7571 41.1963C95.2487 39.6645 93.6879 38.081 92.1795 36.5061C90.2176 34.4407 88.2732 32.3667 86.3288 30.2927C85.3173 29.217 84.3146 28.1413 83.3032 27.0655C83.0852 26.8332 82.8498 26.6266 82.6666 26.4631L81.8034 25.6628C81.6988 26.2824 81.5506 26.8848 81.3762 27.4872C81.5942 27.7024 81.9953 28.1413 82.1435 28.3048C83.1462 29.3633 84.1402 30.4304 85.1342 31.4975C87.0961 33.5888 89.0579 35.68 91.0372 37.7454C92.5369 39.3289 94.0977 40.9037 95.6062 42.4356C96.295 43.1413 96.9925 43.8383 97.6814 44.544L97.9604 44.828V45.9209L97.2803 46.6697C97.0274 46.945 96.7658 47.229 96.513 47.5044C90.5664 54.1567 88.3691 62.186 89.7816 72.0569C90.3048 75.6628 91.5255 79.2858 92.7113 82.7798L93.1386 84.0449C93.3304 84.6215 93.531 85.198 93.7228 85.7832C95.2312 90.1636 96.7833 94.7075 96.9228 99.5268C97.1495 107.04 94.8737 113.89 90.1566 119.88C86.041 125.121 81.2803 128.201 75.604 129.312C73.5375 129.716 71.4274 130.009 69.3871 130.301C67.6781 130.534 65.9081 130.783 64.1904 131.093C58.0083 132.203 53.9277 134.286 50.9718 137.831L50.6667 138.184H49.3675L49.071 137.788C46.6906 134.57 43.1767 132.608 37.6835 131.437C35.2421 130.912 32.6961 130.542 30.2372 130.189C28.598 129.948 26.8977 129.708 25.2323 129.415C19.495 128.417 14.586 125.362 10.6274 120.336C4.41052 112.453 2.23069 103.933 4.1315 95.0173C5.06447 90.6369 6.5206 86.334 7.9593 82.3409C11.2291 73.2531 11.8568 66.1017 9.99962 59.1653C8.56965 53.8211 6.20671 49.7075 2.76257 46.5922L2.44867 46.2996V44.7592L2.80616 44.4666C2.90208 44.3891 2.98927 44.3203 3.08518 44.2514C3.22469 44.1481 3.3642 44.0449 3.45139 43.9502C5.0296 42.2635 6.6078 40.5681 8.17728 38.8814C9.84267 37.0913 11.5081 35.3099 13.1822 33.5199C14.4814 32.1344 15.7893 30.7488 17.0972 29.3719L18.9805 27.3753C19.0241 27.513 19.0677 27.6593 19.1201 27.8056C18.841 26.9106 18.6231 25.9898 18.4923 25.0518L15.5626 28.1413C14.2547 29.5182 12.9468 30.9037 11.6476 32.2979C9.93859 34.1223 8.22088 35.9554 6.5206 37.7884C4.99472 39.4235 3.46883 41.0586 1.94295 42.6938C1.89063 42.7368 1.83832 42.7712 1.786 42.8142C1.68137 42.8917 1.56802 42.9777 1.46338 43.0638L0.425781 43.8986V47.0913L1.34131 47.9261C4.50643 50.8005 6.70371 54.6301 8.03777 59.6301C9.79908 66.1963 9.18872 73.0122 6.04104 81.7385C4.58491 85.7918 3.10262 90.1636 2.14349 94.6473C0.129323 104.105 2.43123 113.124 8.98818 121.454C13.2345 126.842 18.5271 130.121 24.7266 131.196C26.4182 131.489 28.1271 131.738 29.7751 131.979C32.3211 132.349 34.719 132.694 37.1081 133.21C42.1391 134.286 45.3043 136.024 47.4056 138.856L48.2514 140H51.3555L52.2013 138.985C54.8694 135.783 58.61 133.899 64.3299 132.874C66.0127 132.573 67.7653 132.332 69.4568 132.091C71.5233 131.807 73.6596 131.506 75.7784 131.093C81.8209 129.914 87.0874 126.515 91.4209 120.998C96.4083 114.664 98.8149 107.418 98.5707 99.4665C98.4225 94.3891 96.8269 89.7161 95.2835 85.198C95.083 84.6215 94.2634 82.2032 94.2634 82.2032C93.1124 78.7781 91.9092 75.2411 91.4209 71.7987C90.0868 62.4872 92.1359 54.9399 97.7075 48.7092C97.9778 48.408 98.2481 48.1154 98.5184 47.8228Z" fill="#BF272F"/>
<path fill-rule="evenodd" clip-rule="evenodd" d="M95.7555 45.4039C95.2323 44.8703 94.7091 44.3367 94.186 43.8032C92.6688 42.2713 91.0993 40.6792 89.5822 39.0872C87.6029 37.0132 85.641 34.9219 83.6792 32.8307C82.72 31.798 81.5778 30.6792 80.6099 29.6551C80.6099 29.6551 80.6099 29.6551 80.6099 29.6465C76.538 39.199 64.4704 46.1181 50.2056 46.1181C35.775 46.1181 23.5854 39.0441 19.653 29.3281C19.7053 29.5002 19.714 29.5949 19.653 29.5433L18.5456 30.7137C17.2464 32.0906 15.9385 33.4675 14.6393 34.8531C12.974 36.6345 11.3086 38.4245 9.64316 40.2059C8.06496 41.9013 6.48676 43.5966 4.90855 45.2834C4.80392 45.3953 4.69057 45.4985 4.58594 45.5846C8.05624 48.9064 10.4541 53.1922 11.9276 58.6655C13.8895 66.0063 13.2443 73.5106 9.83499 82.9942C8.42245 86.9271 6.98376 91.1526 6.07695 95.4211C4.2982 103.743 6.35597 111.721 12.1979 119.13C15.8949 123.82 20.272 126.557 25.5821 127.478C27.2126 127.77 28.8955 128.011 30.526 128.244C33.0197 128.605 35.5919 128.984 38.1118 129.517C41.9222 130.335 46.6568 131.789 50.0748 135.86C54.2775 131.333 59.8928 129.87 63.8339 129.156C65.5952 128.846 67.3827 128.597 69.1091 128.356C71.1233 128.072 73.1985 127.779 75.2127 127.392C80.4007 126.376 84.7778 123.528 88.5882 118.683C93.0089 113.054 95.1451 106.635 94.9358 99.5777C94.7963 95.0596 93.2966 90.662 91.8405 86.4021C91.6486 85.8256 91.4481 85.249 91.2476 84.6638L90.8203 83.3987C89.617 79.8187 88.3614 76.1095 87.8208 72.3316C86.3386 62.0046 88.7625 53.218 95.023 46.2128C95.2672 45.9374 95.5113 45.6706 95.7555 45.4039ZM77.0001 113.605H57.5473L56.5881 110.937L58.4192 110.464C60.4247 109.896 61.7761 109.139 62.465 108.192C63.1538 107.254 63.5026 105.585 63.5026 103.175V87.4262H37.5364V103.726C37.5364 105.972 37.859 107.538 38.4868 108.433C39.1233 109.32 40.4225 110.051 42.3843 110.619L44.0497 111.092L43.1778 113.605H23.7249L22.7745 110.937L24.5968 110.464C26.611 109.896 27.9538 109.139 28.6426 108.192C29.3315 107.254 29.6802 105.585 29.6802 103.175V67.7619C29.6802 65.3608 29.3315 63.6827 28.6426 62.7447C27.9538 61.8066 26.611 61.0493 24.5968 60.4727L22.7745 59.9994L23.7249 57.3402H41.1113L42.1402 58.5966L41.1113 59.9994C39.7859 61.7292 38.8617 63.5536 38.3298 65.4899C37.7979 67.4262 37.5364 69.9564 37.5364 73.0889V82.65H63.5026V67.7619C63.5026 65.3608 63.1538 63.6827 62.465 62.7447C61.7761 61.8066 60.4247 61.0493 58.4192 60.4727L56.5881 59.9994L57.5473 57.3402H74.9336L75.9625 58.5966L74.9336 59.9994C73.6083 61.7292 72.6841 63.5536 72.1522 65.4899C71.6203 67.4262 71.3587 69.9564 71.3587 73.0889V103.726C71.3587 105.972 71.6726 107.538 72.3091 108.433C72.9456 109.32 74.2448 110.051 76.198 110.619L77.8721 111.092L77.0001 113.605Z" fill="#BF272F"/>
<path d="M63.5802 9.45801H54.7998V11.0243H64.3126V31.0415H35.7219V11.0243H40.8838V9.45801H36.4543C34.9895 9.45801 33.7949 10.6284 33.7949 12.0828V30.4907C33.7949 31.9795 35.0505 33.4855 36.5415 33.7781L46.5426 35.7575L44.0489 36.6353C43.299 36.8935 42.5579 37.1947 41.9737 37.4614H58.0609C57.4679 37.1947 56.7268 36.8935 55.9944 36.6353L53.4919 35.7575L63.5105 33.7781C64.9927 33.4855 66.2396 31.9795 66.2396 30.4907V12.0828C66.2396 10.6284 65.0451 9.45801 63.5802 9.45801Z" fill="#BF272F"/>
<path fill-rule="evenodd" clip-rule="evenodd" d="M56.3336 21.79C56.29 22.2633 56.1069 22.6678 55.9151 23.0723C55.6884 23.5456 55.4529 24.0103 55.2698 24.4923C55.139 24.8365 55.0518 25.2065 54.9821 25.568C54.9036 26.0069 54.8426 26.4458 54.8077 26.8847C54.7815 27.1515 54.8164 27.4182 54.8339 27.685C54.8426 27.9776 54.7205 28.1325 54.4676 28.2788C54.3194 28.3649 54.1799 28.5198 54.1189 28.6833C54.023 28.8985 53.9968 29.148 53.9532 29.389C53.9183 29.6127 53.8834 29.6558 53.648 29.6558C53.2557 29.6558 52.8546 29.6558 52.4622 29.6558C52.2093 29.6558 52.157 29.5783 52.2704 29.3546C52.5058 28.8985 52.8371 28.5026 53.2731 28.2186C53.5347 28.0465 53.6655 27.7883 53.7614 27.5301C53.9096 27.0826 54.0491 26.6351 54.1189 26.1704C54.2409 25.3701 54.3979 24.5525 54.2584 23.7435C54.1886 23.3477 53.9968 22.969 53.8224 22.599C53.5521 22.0396 53.1336 21.5749 52.7325 21.1102C52.4709 20.809 52.3314 20.4561 52.2529 20.0861C52.2355 19.9828 52.1919 19.9484 52.096 19.9828C51.8431 20.0516 51.5903 20.1291 51.3374 20.1893C51.0845 20.2496 50.8317 20.3184 50.5788 20.3356C50.0731 20.3614 49.5674 20.3614 49.0529 20.3614C48.9309 20.3614 48.8698 20.3701 48.8785 20.5077C48.9134 20.9897 48.7129 21.4114 48.5472 21.8503C48.4513 22.0912 48.4687 22.3666 48.4687 22.6248C48.46 23.0809 48.5646 23.5112 48.678 23.9587C48.7216 24.1394 48.6431 24.3546 48.5995 24.5525C48.5385 24.8021 48.4077 25.043 48.3903 25.2926C48.3728 25.7487 48.399 26.1962 48.4426 26.6437C48.4775 27.0138 48.617 27.3666 48.6518 27.7281C48.6693 27.8916 48.5821 28.0895 48.4949 28.2444C48.3379 28.5198 48.2595 28.8038 48.2507 29.1136C48.242 29.716 48.2856 29.6386 47.7014 29.6472C47.4311 29.6558 47.1608 29.6472 46.8905 29.6386C46.7074 29.6386 46.6725 29.5869 46.7336 29.4234C46.8731 28.9931 47.0736 28.5886 47.4311 28.296C47.7276 28.0465 47.745 27.7108 47.7363 27.3924C47.7276 26.8589 47.6404 26.3253 47.5706 25.8003C47.527 25.4561 47.466 25.1119 47.405 24.7676C47.3614 24.5697 47.3352 24.3718 47.248 24.1997C47.1085 23.9329 47.1434 23.6661 47.1695 23.3993C47.2044 23.0293 47.187 22.6764 47.0562 22.3322C46.969 22.074 46.8818 21.8244 46.7772 21.5663C46.5854 21.0671 46.254 20.6454 45.9488 20.2065C45.7483 19.9225 45.5477 19.8107 45.199 19.9225C45.042 19.9656 44.8676 19.9398 44.702 19.9225C44.2747 19.8623 43.8562 19.8193 43.4464 19.7074C43.0191 19.5955 42.6093 19.432 42.2082 19.2599C41.8595 19.105 41.502 19.0189 41.1445 19.1136C40.8131 19.191 40.5428 19.4062 40.3597 19.6816C40.1156 20.0516 39.9063 20.4475 39.7058 20.852C39.5663 21.1274 39.4442 21.42 39.3745 21.7126C39.3047 22.0052 39.3134 22.3064 39.3047 22.6076C39.3047 22.8571 39.2524 23.0551 38.9734 23.1411C38.921 23.1583 38.8774 23.2358 38.8513 23.296C38.8339 23.3391 38.8426 23.3993 38.8513 23.4509C38.9472 24.0189 38.9472 23.8726 38.5112 24.1997C38.2235 24.4234 37.9183 24.6299 37.6131 24.8365C37.5608 24.8709 37.4736 24.8967 37.4213 24.8709C37.3777 24.8451 37.3516 24.7504 37.3516 24.6988C37.3952 24.3029 37.3864 23.8985 37.4998 23.5284C37.6131 23.167 37.8573 22.8485 38.0317 22.5043C38.1886 22.2117 38.3456 21.9105 38.4851 21.6093C38.6507 21.2823 38.799 20.9466 38.9385 20.611C39.0606 20.3442 39.1565 20.0688 39.2611 19.8021C39.5052 19.1308 39.7232 18.4509 40.29 17.969C40.6213 17.685 41.005 17.5559 41.4409 17.5473C41.7984 17.5387 42.1646 17.5645 42.5221 17.5129C42.9319 17.4441 43.333 17.315 43.6905 17.0998C43.7952 17.0396 43.8824 16.9621 43.83 16.8158C43.6295 16.3683 43.5772 15.895 43.5685 15.4045C43.5597 14.9398 43.5859 14.4836 43.7428 14.0448C43.9695 13.3821 44.3183 12.7711 44.7979 12.2375C45.199 11.7728 45.5303 11.2651 45.7657 10.6971C45.8965 10.4045 46.0535 10.1205 46.2017 9.83649C46.2627 9.73322 46.2104 9.69019 46.1232 9.68158C45.7745 9.65577 45.4867 9.49225 45.1903 9.35456C45.042 9.29432 44.8415 9.29432 44.6758 9.31153C44.3968 9.32014 44.1788 9.2685 44.0829 8.9673C44.0742 8.94148 44.048 8.92427 44.0393 8.90706C43.6992 8.57143 43.7777 8.14114 44.2311 7.96041C44.484 7.86575 44.763 7.81411 45.0333 7.71945C45.4257 7.57315 45.7832 7.36661 46.0883 7.0654C46.2191 6.93632 46.3674 6.80723 46.5069 6.68675C46.5243 6.66093 46.5418 6.63511 46.5766 6.58348C46.4982 6.55766 46.4284 6.52324 46.3674 6.52324C46.0535 6.54905 45.7657 6.45439 45.5129 6.28227C45.2339 6.10155 44.9636 5.92083 44.6933 5.7315C44.6497 5.70568 44.5973 5.66265 44.5712 5.61102C44.545 5.55938 44.5101 5.47332 44.5363 5.42169C44.5537 5.37866 44.6497 5.34423 44.7107 5.34423C44.7892 5.34423 44.8589 5.37866 44.9287 5.40448C45.1903 5.50775 45.4431 5.61102 45.696 5.71429C45.7396 5.7315 45.8093 5.69707 45.8529 5.68847C45.8442 5.64544 45.8529 5.5852 45.8268 5.55077C45.3559 4.84509 44.8328 4.18244 44.0829 3.74355C43.8824 3.62306 43.7167 3.45095 43.5685 3.28744C43.49 3.19277 43.4725 3.04647 43.4464 2.91738C43.4289 2.86575 43.4725 2.76248 43.5074 2.75387C43.5597 2.74527 43.6382 2.77969 43.6905 2.81411C43.926 3.00344 44.1527 3.20138 44.3881 3.3821C44.4666 3.45095 44.5712 3.50258 44.6671 3.55422C44.7892 3.61446 44.8851 3.58003 44.8764 3.44234C44.8764 3.20138 44.8676 2.95181 44.824 2.71945C44.763 2.27194 44.6497 1.83305 44.6061 1.38554C44.5712 1.0241 44.6061 0.662651 44.6148 0.292599C44.6148 0.258176 44.6148 0.215146 44.6409 0.189329C44.702 0.120482 44.7717 0.060241 44.8415 0C44.8676 0.0774527 44.92 0.154905 44.9287 0.232358C44.9548 0.499139 44.9636 0.765921 44.981 1.0241C44.9897 1.06713 45.0159 1.10155 45.0769 1.15318C45.1292 0.998279 45.1815 0.843373 45.2339 0.688468C45.2775 0.55938 45.3036 0.413081 45.3734 0.292599C45.3995 0.240964 45.5129 0.215146 45.5826 0.180723C45.6088 0.24957 45.6611 0.327022 45.6437 0.378657C45.5652 0.671256 45.4606 0.963855 45.3821 1.25645C45.3298 1.46299 45.2949 1.67814 45.2687 1.89329C45.26 1.94492 45.3123 1.99656 45.3385 2.04819C45.3821 2.02238 45.4431 2.00516 45.4867 1.97935C45.7047 1.82444 45.9314 1.65232 46.1668 1.51463C46.2191 1.48021 46.3238 1.51463 46.4022 1.52324C46.3761 1.60069 46.3674 1.70396 46.3151 1.75559C46.1494 1.92771 45.9314 2.0654 45.7919 2.26334C45.6785 2.41824 45.6001 2.63339 45.5652 2.83133C45.4867 3.27022 45.5565 3.70052 45.6698 4.13941C45.7745 4.57831 45.9401 5 46.2017 5.37005C46.4546 5.7315 46.8033 5.96386 47.2219 6.09294C47.527 6.18761 47.8322 6.28227 48.1548 6.3253C48.4687 6.37694 48.5559 6.23924 48.4513 5.94664C48.3903 5.74871 48.2943 5.56799 48.2333 5.37866C48.1984 5.26678 48.1723 5.15491 48.1897 5.04303C48.1984 4.96558 48.2769 4.8537 48.3467 4.83649C48.4164 4.82788 48.5385 4.88812 48.5734 4.95697C48.6518 5.08606 48.678 5.25818 48.7565 5.39587C48.8611 5.5852 48.957 5.78313 49.1052 5.92943C49.3494 6.179 49.6546 6.13597 49.9597 6.04131C50.0208 6.01549 50.0818 5.98107 50.1516 5.94664C50.5265 5.75732 50.6486 5.49914 50.5178 5.09466C50.4044 4.74182 50.2475 4.39759 50.1341 4.04475C50.0469 3.75215 49.9161 3.45095 50.0818 3.15835C50.1167 3.0895 50.2126 3.05508 50.2736 3.01205C50.3172 3.06368 50.3695 3.12392 50.387 3.18417C50.4916 3.61446 50.6137 4.04475 50.8927 4.4062C51.0933 4.65577 51.3897 4.69019 51.6513 4.50086C52.1047 4.16523 52.4796 3.75215 52.5319 3.16695C52.5668 2.83993 52.5145 2.4957 52.4448 2.17728C52.3924 1.93632 52.2529 1.72117 52.1657 1.48881C52.1396 1.41136 52.1657 1.30809 52.1657 1.22203C52.2616 1.23924 52.3924 1.23064 52.4448 1.28227C52.5843 1.45439 52.7063 1.65232 52.8197 1.84165C52.9069 1.97935 52.9766 2.12565 53.0638 2.25473C53.1423 2.36661 53.2295 2.33219 53.2557 2.22031C53.308 2.01377 53.3428 1.79862 53.3864 1.58348C53.4388 1.25645 53.4998 0.938038 53.5521 0.611015C53.5695 0.490534 53.5608 0.370052 53.5783 0.240964C53.5957 0.197935 53.6306 0.154905 53.6567 0.111876C53.7091 0.137694 53.8137 0.163511 53.8224 0.20654C53.8573 0.413081 53.8922 0.628227 53.8834 0.834768C53.8747 1.06713 53.8224 1.29948 53.8137 1.53184C54.0666 1.40275 54.1886 1.19621 54.2845 0.963855C54.3369 0.817556 54.3456 0.671256 54.4153 0.542169C54.4502 0.473322 54.5548 0.438898 54.6246 0.387263C54.6595 0.45611 54.7379 0.533563 54.7205 0.585198C54.6507 0.869191 54.581 1.15318 54.4589 1.41136C54.302 1.78141 54.1189 2.15146 53.9009 2.4957C53.6567 2.90878 53.369 3.29604 53.0813 3.69191C52.7412 4.18244 52.4099 4.67298 52.0349 5.13769C51.4507 5.86059 50.7009 6.36833 49.8202 6.68675C49.7069 6.72978 49.5935 6.77281 49.4802 6.82444C49.4802 6.82444 49.4802 6.83305 49.4627 6.88468C49.7156 6.90189 49.9685 6.95353 50.2039 6.92771C50.4742 6.90189 50.7358 6.80723 51.0061 6.74699C51.0584 6.72978 51.1194 6.73838 51.163 6.7642C51.1892 6.78141 51.1979 6.85886 51.1892 6.89329C50.9886 7.39243 50.7183 7.80551 50.1428 7.9432C49.8987 8.00344 49.672 8.02065 49.4453 7.9346C49.3058 7.88296 49.2535 7.9346 49.2622 8.08089C49.2622 8.36489 49.2796 8.66609 49.2535 8.95869C49.1924 9.5525 49.0965 10.1549 49.0355 10.7487C48.9745 11.4458 48.6954 12.117 48.7565 12.8227C48.8088 13.4079 49.0181 13.9243 49.5674 14.2083C49.8377 14.346 50.1428 14.4492 50.4393 14.475C50.8404 14.5181 51.2589 14.5181 51.66 14.475C52.1221 14.432 52.5755 14.3287 53.029 14.2427C53.4562 14.1738 53.8922 14.062 54.3194 14.0361C55.0431 13.9931 55.7755 13.9587 56.4905 14.0189C57.3712 14.105 58.2082 14.3632 58.8535 15.0086C59.2197 15.3787 59.4813 15.809 59.5859 16.3167C59.6121 16.4544 59.6731 16.5835 59.6905 16.7212C59.6993 16.7986 59.6731 16.9449 59.6295 16.9535C59.5423 16.9793 59.429 16.9449 59.333 16.9191C59.2633 16.9019 59.2022 16.8417 59.0715 16.7642C59.0715 16.9621 59.0715 17.0998 59.0715 17.2375C59.0802 17.7969 58.9581 18.3305 58.836 18.8726C58.7663 19.1652 58.7924 19.4836 58.8099 19.7849C58.8448 20.5852 59.1412 21.2651 59.8388 21.7298C60.1963 21.9707 60.5973 22.1084 61.0333 22.1687C61.26 22.1945 61.4606 22.401 61.478 22.6506C61.5216 23.2702 61.5478 23.8898 61.6175 24.5095C61.6524 24.8365 61.7396 25.1463 61.8355 25.4561C61.9488 25.809 62.1058 26.1446 62.2453 26.4888C62.2889 26.5921 62.3412 26.6954 62.4023 26.79C62.6638 27.2289 62.5679 27.4957 62.2017 27.7108C61.9314 27.8657 61.8878 28.1067 61.8704 28.3477C61.8442 28.7005 61.8529 29.062 61.8617 29.4234C61.8617 29.5869 61.8006 29.6558 61.6262 29.6558C61.2077 29.6472 60.7979 29.6558 60.3794 29.6558C60.1265 29.6558 60.0567 29.5611 60.1875 29.346C60.3794 29.0189 60.5625 28.6833 60.8066 28.4079C61.2251 27.9604 61.3211 27.4527 61.3036 26.8761C61.2949 26.3941 61.2077 25.9208 61.0508 25.4647C60.9025 25.0516 60.7979 24.6299 60.6148 24.2341C60.3706 23.6833 59.9608 23.253 59.4028 22.9776C58.993 22.7883 58.5745 22.6592 58.121 22.599C57.5194 22.5043 56.9352 22.3322 56.4818 21.8675C56.4644 21.8503 56.4382 21.833 56.4121 21.8158C56.3946 21.8072 56.3685 21.8072 56.3336 21.79Z" fill="#BF272F"/>
</g>
<defs>
<clipPath id="clip0_35_371">
<rect width="100" height="140" fill="white"/>
</clipPath>
</defs>
</svg>
